<?xml version="1.0" encoding="UTF-8"?>
<svg version="1.1" xmlns="http://www.w3.org/2000/svg" width="532" height="469">
<path d="M0 0 C6.83136824 3.44591141 12.54191222 8.15868203 15.69921875 15.23828125 C16.9289969 19.24039163 17.16136693 23.27874368 17.375 27.4375 C18.07737793 27.29675049 18.77975586 27.15600098 19.50341797 27.01098633 C27.55108779 25.51938669 35.32509401 25.08803161 43.5 25.125 C44.76884033 25.12918945 46.03768066 25.13337891 47.3449707 25.13769531 C78.67848463 25.51235032 78.67848463 25.51235032 88.12890625 34.015625 C92.84118147 39.63728667 94.96363517 46.61403648 97.375 53.4375 C98.03310901 55.1075643 98.69665413 56.77555262 99.375 58.4375 C101.50960411 55.65724527 101.50960411 55.65724527 101.875 52.8125 C102.04 52.02875 102.205 51.245 102.375 50.4375 C106.82583345 48.21208328 112.89751213 48.96470388 117.5 50.4375 C118.11875 50.7675 118.7375 51.0975 119.375 51.4375 C120.0625 54.75 120.0625 54.75 120.375 58.4375 C118.87097949 60.58610073 117.70395015 61.27302492 115.375 62.4375 C113.67136178 62.66372081 111.96171299 62.84638473 110.25 63 C108.88488281 63.12568359 108.88488281 63.12568359 107.4921875 63.25390625 C106.79351562 63.31449219 106.09484375 63.37507813 105.375 63.4375 C105.79652344 64.06398438 106.21804688 64.69046875 106.65234375 65.3359375 C107.20019531 66.15320313 107.74804688 66.97046875 108.3125 67.8125 C108.85777344 68.62460938 109.40304687 69.43671875 109.96484375 70.2734375 C117.7283429 82.18750545 113.75849201 105.26573334 112.6875 118.8125 C112.63424561 119.64885986 112.58099121 120.48521973 112.52612305 121.34692383 C111.84510371 128.68024043 109.11882301 135.35726104 103.4375 140.25 C88.89342486 149.34004696 68.51769378 148.77866259 51.9375 148.625 C50.35652803 148.61676353 48.77555466 148.60879191 47.19458008 148.60107422 C9.84638508 148.36333814 9.84638508 148.36333814 -6.625 145.4375 C-7.4396875 145.29441406 -8.254375 145.15132812 -9.09375 145.00390625 C-14.48921724 143.86642901 -18.70761017 141.75032274 -22.25390625 137.47265625 C-24.29273225 132.95935767 -24.15741837 128.58771353 -24.25 123.6875 C-24.30077201 121.77593366 -24.35525216 119.86446093 -24.4140625 117.953125 C-24.43162598 117.11040039 -24.44918945 116.26767578 -24.46728516 115.39941406 C-24.4119271 113.43451532 -24.4119271 113.43451532 -25.625 112.4375 C-25.76336179 109.86473406 -25.8381635 107.32079182 -25.86328125 104.74609375 C-25.871353 103.96742447 -25.87942474 103.18875519 -25.88774109 102.38648987 C-25.90160441 100.73123411 -25.91231646 99.0759495 -25.92016602 97.4206543 C-25.9372656 94.90942361 -25.9811145 92.39954878 -26.02539062 89.88867188 C-26.03552749 88.2786555 -26.04404047 86.66862793 -26.05078125 85.05859375 C-26.06828934 84.31556503 -26.08579742 83.57253632 -26.10383606 82.80699158 C-26.07185401 74.96973871 -22.7243432 69.2653208 -17.625 63.4375 C-18.28886719 63.41171875 -18.95273438 63.3859375 -19.63671875 63.359375 C-23.87580647 63.08708323 -26.97121427 62.79054429 -30.75 60.75 C-32.625 58.4375 -32.625 58.4375 -33.0625 55.3125 C-32.625 52.4375 -32.625 52.4375 -30.625 50.4375 C-28.64143517 49.72341666 -26.64184563 49.05132258 -24.625 48.4375 C-25.16769531 47.92960937 -25.71039063 47.42171875 -26.26953125 46.8984375 C-26.98496094 46.21007812 -27.70039063 45.52171875 -28.4375 44.8125 C-29.14519531 44.13960937 -29.85289062 43.46671875 -30.58203125 42.7734375 C-35.26713938 37.41646874 -36.10825313 32.78150346 -36 25.9375 C-36.01160156 25.20402344 -36.02320313 24.47054687 -36.03515625 23.71484375 C-35.99350176 15.95322457 -32.68990229 10.92397855 -27.59765625 5.26953125 C-20.17945056 -1.61985186 -9.409934 -3.82278569 0 0 Z M-14.625 51.4375 C-13.965 53.7475 -13.305 56.0575 -12.625 58.4375 C-11.965 58.1075 -11.305 57.7775 -10.625 57.4375 C-9.96944881 54.91016765 -9.96944881 54.91016765 -9.625 52.4375 C-11.275 52.1075 -12.925 51.7775 -14.625 51.4375 Z " fill="#A7B8C4" transform="translate(219.625,176.5625)"/>
<path d="M0 0 C6.83136824 3.44591141 12.54191222 8.15868203 15.69921875 15.23828125 C16.9289969 19.24039163 17.16136693 23.27874368 17.375 27.4375 C18.07737793 27.29675049 18.77975586 27.15600098 19.50341797 27.01098633 C27.55108779 25.51938669 35.32509401 25.08803161 43.5 25.125 C44.76884033 25.12918945 46.03768066 25.13337891 47.3449707 25.13769531 C78.67848463 25.51235032 78.67848463 25.51235032 88.12890625 34.015625 C92.84118147 39.63728667 94.96363517 46.61403648 97.375 53.4375 C98.03310901 55.1075643 98.69665413 56.77555262 99.375 58.4375 C101.50960411 55.65724527 101.50960411 55.65724527 101.875 52.8125 C102.04 52.02875 102.205 51.245 102.375 50.4375 C106.82583345 48.21208328 112.89751213 48.96470388 117.5 50.4375 C118.11875 50.7675 118.7375 51.0975 119.375 51.4375 C120.0625 54.75 120.0625 54.75 120.375 58.4375 C118.87097949 60.58610073 117.70395015 61.27302492 115.375 62.4375 C113.67136178 62.66372081 111.96171299 62.84638473 110.25 63 C108.88488281 63.12568359 108.88488281 63.12568359 107.4921875 63.25390625 C106.79351562 63.31449219 106.09484375 63.37507813 105.375 63.4375 C106.055625 64.18 106.73625 64.9225 107.4375 65.6875 C108.076875 66.595 108.71625 67.5025 109.375 68.4375 C108.99609375 70.609375 108.99609375 70.609375 108.375 72.4375 C107.86453125 71.715625 107.3540625 70.99375 106.828125 70.25 C102.61664815 64.69900243 102.61664815 64.69900243 96.5625 61.703125 C93.4160201 61.6863884 90.48642501 61.96792297 87.375 62.4375 C85.72177734 62.65986328 85.72177734 62.65986328 84.03515625 62.88671875 C81.91097782 63.19654641 79.79026677 63.53210309 77.67578125 63.90234375 C70.64682992 65.04194888 63.70746819 65.59927725 56.58984375 65.640625 C55.37377945 65.65080658 55.37377945 65.65080658 54.13314819 65.66119385 C51.52622574 65.67806552 48.91947344 65.68438637 46.3125 65.6875 C45.42227142 65.68983643 44.53204285 65.69217285 43.61483765 65.69458008 C30.06576617 65.70798851 17.07905475 64.76572694 3.67089844 62.76269531 C-5.49939714 61.20263762 -5.49939714 61.20263762 -13.953125 64.0078125 C-15.72137469 65.7273309 -17.21073965 67.42153615 -18.625 69.4375 C-19.25 67.5625 -19.25 67.5625 -19.625 65.4375 C-18.635 64.4475 -18.635 64.4475 -17.625 63.4375 C-18.28886719 63.41171875 -18.95273438 63.3859375 -19.63671875 63.359375 C-23.87580647 63.08708323 -26.97121427 62.79054429 -30.75 60.75 C-32.625 58.4375 -32.625 58.4375 -33.0625 55.3125 C-32.625 52.4375 -32.625 52.4375 -30.625 50.4375 C-28.64143517 49.72341666 -26.64184563 49.05132258 -24.625 48.4375 C-25.16769531 47.92960937 -25.71039063 47.42171875 -26.26953125 46.8984375 C-26.98496094 46.21007812 -27.70039063 45.52171875 -28.4375 44.8125 C-29.14519531 44.13960937 -29.85289062 43.46671875 -30.58203125 42.7734375 C-35.26713938 37.41646874 -36.10825313 32.78150346 -36 25.9375 C-36.01160156 25.20402344 -36.02320313 24.47054687 -36.03515625 23.71484375 C-35.99350176 15.95322457 -32.68990229 10.92397855 -27.59765625 5.26953125 C-20.17945056 -1.61985186 -9.409934 -3.82278569 0 0 Z M-14.625 51.4375 C-13.965 53.7475 -13.305 56.0575 -12.625 58.4375 C-11.965 58.1075 -11.305 57.7775 -10.625 57.4375 C-9.96944881 54.91016765 -9.96944881 54.91016765 -9.625 52.4375 C-11.275 52.1075 -12.925 51.7775 -14.625 51.4375 Z " fill="#606870" transform="translate(219.625,176.5625)"/>
<path d="M0 0 C28.38 0 56.76 0 86 0 C86.99 3.96 86.99 3.96 88 8 C89.44919918 10.61615782 89.44919918 10.61615782 92 12 C94.89449949 12.2906124 97.37949935 12.38186045 100.25 12.25 C100.99507813 12.23195313 101.74015625 12.21390625 102.5078125 12.1953125 C104.33909701 12.14835649 106.16971649 12.07661652 108 12 C103.06041633 19.95761502 97.18816041 22.09470276 88.29296875 24.29443359 C76.10482981 26.90591947 63.969021 27.30248166 51.5625 27.1875 C49.98152803 27.17926353 48.40055466 27.17129191 46.81958008 27.16357422 C9.47138508 26.92583814 9.47138508 26.92583814 -7 24 C-7.8146875 23.85691406 -8.629375 23.71382813 -9.46875 23.56640625 C-15.15490519 22.36764592 -19.41813424 20.16188321 -22.875 15.4375 C-24 13 -24 13 -24 10 C-22.98099609 10.48339844 -22.98099609 10.48339844 -21.94140625 10.9765625 C-18.47839342 12.18148861 -15.59995519 12.33582936 -11.9375 12.375 C-10.72964844 12.40335937 -9.52179688 12.43171875 -8.27734375 12.4609375 C-4.99892571 12.23274651 -4.99892571 12.23274651 -2.62890625 10.4765625 C-0.32288316 7.36758082 -0.32288316 7.36758082 0 0 Z " fill="#000000" transform="translate(220,298)"/>
<path d="M0 0 C0.99 0 1.98 0 3 0 C2.979375 1.2375 2.95875 2.475 2.9375 3.75 C2.82554799 8.00586309 2.82554799 8.00586309 4 12 C6.36186139 13.26145768 6.36186139 13.26145768 9 14 C9.99 14.33 10.98 14.66 12 15 C10.2984375 14.195625 10.2984375 14.195625 8.5625 13.375 C6.62890625 12.4609375 6.62890625 12.4609375 5 11 C4.27734375 7.8515625 4.27734375 7.8515625 4 5 C7.97915159 4.97113016 11.95827653 4.95324594 15.9375 4.9375 C17.07380859 4.92912109 18.21011719 4.92074219 19.38085938 4.91210938 C20.46044922 4.90888672 21.54003906 4.90566406 22.65234375 4.90234375 C24.15269165 4.89448853 24.15269165 4.89448853 25.68334961 4.88647461 C28 5 28 5 29 6 C29.07226502 7.85287502 29.0838122 9.70833878 29.0625 11.5625 C29.05347656 12.57441406 29.04445312 13.58632813 29.03515625 14.62890625 C29.02355469 15.41136719 29.01195312 16.19382812 29 17 C29.33 17 29.66 17 30 17 C30.103125 15.88625 30.20625 14.7725 30.3125 13.625 C30.539375 12.42875 30.76625 11.2325 31 10 C31.99 9.34 32.98 8.68 34 8 C34.66 8.33 35.32 8.66 36 9 C37.90908186 9.1199408 39.82222248 9.17731288 41.73486328 9.20532227 C42.93595734 9.22526749 44.13705139 9.24521271 45.37454224 9.26576233 C46.67664642 9.28247482 47.97875061 9.29918732 49.3203125 9.31640625 C50.66267538 9.33697625 52.00503179 9.35797273 53.34738159 9.37937927 C56.88188438 9.43459531 60.41644557 9.48400658 63.9510498 9.53222656 C67.55726322 9.58244504 71.16339172 9.63812929 74.76953125 9.69335938 C81.84628049 9.80093517 88.92310584 9.90238142 96 10 C94.84831238 11.97161865 94.84831238 11.97161865 93 14 C90.47529602 14.48101807 90.47529602 14.48101807 87.42700195 14.45410156 C86.28604568 14.45379944 85.14508942 14.45349731 83.96955872 14.45318604 C82.73823715 14.43254089 81.50691559 14.41189575 80.23828125 14.390625 C78.34688667 14.38213531 78.34688667 14.38213531 76.4172821 14.37347412 C73.06804732 14.35486056 69.71990283 14.31893566 66.37097168 14.2746582 C62.95248837 14.23370857 59.53389236 14.21546388 56.11523438 14.1953125 C49.40985451 14.15116211 42.70499021 14.08418642 36 14 C36.495 14.99 36.495 14.99 37 16 C53.335 16.495 53.335 16.495 70 17 C69.34 18.32 68.68 19.64 68 21 C68 21.33 68 21.66 68 22 C61.73 22.33 55.46 22.66 49 23 C49 26.96 49 30.92 49 35 C50.57467041 35.03758423 50.57467041 35.03758423 52.18115234 35.07592773 C56.06881324 35.16996267 59.95629381 35.2701928 63.84375 35.37231445 C65.52762642 35.41567817 67.21154723 35.4573522 68.89550781 35.49731445 C71.31328724 35.55498234 73.73084295 35.6186865 76.1484375 35.68359375 C77.28132706 35.70866249 77.28132706 35.70866249 78.43710327 35.73423767 C83.77225659 35.88612829 83.77225659 35.88612829 86 37 C85.67 38.65 85.34 40.3 85 42 C77.29942703 42.05117739 69.59889875 42.0859317 61.89819336 42.10986328 C59.28456992 42.11985186 56.67095745 42.13344734 54.05737305 42.15087891 C14.64142866 42.40697333 14.64142866 42.40697333 3 36 C0.50269704 33.50985912 0.01692853 32.16858151 -0.34057617 28.60839844 C-0.32486572 27.2887207 -0.30915527 25.96904297 -0.29296875 24.609375 C-0.28872391 23.90476135 -0.28447906 23.20014771 -0.28010559 22.47418213 C-0.26336538 20.23239288 -0.22572404 17.99151569 -0.1875 15.75 C-0.17244704 14.22657552 -0.1587597 12.70313689 -0.14648438 11.1796875 C-0.11347791 7.45283059 -0.06172854 3.72650437 0 0 Z " fill="#ACBDC9" transform="translate(196,255)"/>
<path d="M0 0 C5.2185151 4.95758935 7.71058189 11.24865213 10 18 C10 18.99 10 19.98 10 21 C7.69 21.33 5.38 21.66 3 22 C2.608125 21.071875 2.21625 20.14375 1.8125 19.1875 C-0.21034461 15.63008361 -1.23237001 14.50705199 -5 13 C-10.55442358 12.47100728 -14.31902378 12.6713058 -19 16 C-19.54477553 17.35788365 -20.08179388 18.71889165 -20.61328125 20.08203125 C-21.9309082 22.24072266 -21.9309082 22.24072266 -24 24 C-29.66609706 25.15470415 -35.24521712 24.89433824 -41 24.6875 C-42.63049761 24.65686043 -44.26103399 24.62821984 -45.89160156 24.6015625 C-57.73465297 24.3455325 -69.3671745 23.29379658 -81 21 C-80.07873102 13.46862608 -76.96935961 4.18992172 -70.8515625 -0.7265625 C-68.57022684 -1.77517644 -66.44639421 -2.44400132 -64 -3 C-63.25492188 -3.20496094 -62.50984375 -3.40992188 -61.7421875 -3.62109375 C-42.95193501 -8.36776032 -17.72241405 -8.59669338 0 0 Z " fill="#F1F1F1" transform="translate(299,216)"/>
<path d="M0 0 C6.84151358 3.45102897 12.52899488 8.16446457 15.70703125 15.2421875 C16.72960984 18.60294285 16.96269626 21.93523273 17.1015625 25.43359375 C17.19179687 26.09488281 17.28203125 26.75617188 17.375 27.4375 C18.035 27.7675 18.695 28.0975 19.375 28.4375 C18.385 28.4375 17.395 28.4375 16.375 28.4375 C15.88 26.9525 15.88 26.9525 15.375 25.4375 C15.045 26.7575 14.715 28.0775 14.375 29.4375 C13.73433594 29.50066406 13.09367187 29.56382812 12.43359375 29.62890625 C11.56863281 29.75136719 10.70367187 29.87382812 9.8125 30 C8.96558594 30.10441406 8.11867187 30.20882812 7.24609375 30.31640625 C4.09513214 31.54678174 3.48705268 32.43305643 1.4296875 34.98828125 C-1.94866622 38.568424 -4.49613177 38.99778893 -9.36328125 39.2265625 C-11.88854528 39.2080624 -14.41376579 39.15231261 -16.9375 39.0625 C-18.22462891 39.05605469 -19.51175781 39.04960937 -20.83789062 39.04296875 C-27.76029916 38.91915923 -27.76029916 38.91915923 -30.625 38.4375 C-31.285 37.4475 -31.945 36.4575 -32.625 35.4375 C-33.615 35.9325 -33.615 35.9325 -34.625 36.4375 C-36.23684913 33.21380173 -35.85121437 29.72561289 -35.875 26.1875 C-35.895625 25.43597656 -35.91625 24.68445313 -35.9375 23.91015625 C-35.9926385 16.01156642 -32.78690589 11.03169168 -27.59765625 5.26953125 C-20.17945056 -1.61985186 -9.409934 -3.82278569 0 0 Z " fill="#435555" transform="translate(219.625,176.5625)"/>
<path d="M0 0 C2.80444447 2.52603715 4.62762644 4.8370039 5.61328125 8.453125 C5.6800629 12.0718555 5.54790569 15.66064492 5.421875 19.27734375 C5.30828855 22.69103508 5.30828855 22.69103508 8.11328125 25.390625 C8.93828125 26.07125 9.76328125 26.751875 10.61328125 27.453125 C11.26950362 31.53628643 10.99109802 33.68106465 9.17578125 37.390625 C5.89906647 40.0279808 3.82871968 39.97711068 -0.265625 39.921875 C-2.38671875 39.453125 -2.38671875 39.453125 -3.84375 37.859375 C-4.35292969 37.3953125 -4.86210937 36.93125 -5.38671875 36.453125 C-7.85559295 36.64722026 -7.85559295 36.64722026 -10.51171875 37.453125 C-17.55464952 38.9716405 -21.92038533 37.1477769 -28.19921875 34.078125 C-33.30900244 30.28228569 -35.79128998 25.48800775 -37.38671875 19.453125 C-38.1280258 12.5342592 -36.28899337 6.59178887 -32.01171875 1.140625 C-22.99762665 -8.08808834 -9.93625808 -7.6670018 0 0 Z " fill="#D8EDEB" transform="translate(346.38671875,157.546875)"/>
<path d="M0 0 C1 2 1 2 0.57739258 3.671875 C-0.7078834 8.85428163 -0.26650873 14.42949926 -0.29516602 19.75390625 C-0.30672274 21.25139792 -0.32723276 22.74884723 -0.35668945 24.24609375 C-0.39932095 26.41434595 -0.41552316 28.58138106 -0.42578125 30.75 C-0.44036377 32.04421875 -0.45494629 33.3384375 -0.4699707 34.671875 C0.07619196 38.5395578 0.95418654 39.65438173 4 42 C16.15338805 48.47835184 33.01671986 47.31354799 46.40234375 47.30078125 C48.13619588 47.30468309 49.87004707 47.30902072 51.60389709 47.31376648 C55.2134208 47.32116733 58.82284658 47.32098201 62.43237305 47.31567383 C67.01206118 47.30987997 71.59134476 47.32683844 76.17096615 47.3500185 C79.74449426 47.3648896 83.31792782 47.36560968 86.8914814 47.36250877 C88.57803716 47.36301505 90.26459921 47.36811895 91.95112419 47.37832069 C104.737153 47.44621175 118.59592401 47.48663317 130 41 C132.40991818 39.03185377 132.40991818 39.03185377 132.22705078 35.28466797 C132.22673351 33.68713948 132.21539982 32.08958973 132.1953125 30.4921875 C132.1924826 29.65156769 132.18965271 28.81094788 132.18673706 27.94485474 C132.1755243 25.25475954 132.15041803 22.5649949 132.125 19.875 C132.1149716 18.05339022 132.10584551 16.23177523 132.09765625 14.41015625 C132.07558142 9.93997642 132.04104434 5.47004429 132 1 C132.99 1.33 133.98 1.66 135 2 C136.73942121 16.81810725 136.48521042 31.77546627 135.1875 46.625 C135.08248169 47.92981323 135.08248169 47.92981323 134.9753418 49.26098633 C134.51906736 53.85511946 133.93750229 57.25597945 131 61 C126.34089682 63.32955159 120.05702105 62.53847909 115 62 C111.86921791 60.36123125 110.5718135 58.143627 109 55 C108.960008 53.00039988 108.95653201 50.99952758 109 49 C108.32452118 49.16233124 107.64904236 49.32466248 106.95309448 49.49191284 C103.50397598 50.08534215 100.25147358 50.12722252 96.75048828 50.12939453 C96.03923798 50.13114685 95.32798767 50.13289917 94.59518433 50.13470459 C92.25353526 50.13909088 89.91196229 50.13619585 87.5703125 50.1328125 C85.93512965 50.13348661 84.29994691 50.13445754 82.6647644 50.13571167 C79.24020431 50.1371844 75.81567033 50.13504826 72.39111328 50.13037109 C68.01440912 50.12468311 63.63776642 50.12794961 59.26106453 50.13394356 C55.8843439 50.13756832 52.50763768 50.13640163 49.1309166 50.13381577 C47.51787178 50.13315133 45.90482564 50.13395795 44.29178238 50.13629532 C42.03058696 50.13885235 39.769489 50.13493814 37.50830078 50.12939453 C35.58233566 50.12820114 35.58233566 50.12820114 33.61746216 50.12698364 C29.98274525 49.99939431 26.58435814 49.58177109 23 49 C23.103125 50.216875 23.20625 51.43375 23.3125 52.6875 C23.26126417 55.8925856 22.96268204 57.0688947 21.375 60 C15.99241725 63.18967867 10.09625751 63.02309877 4 62 C1.109375 60.5078125 1.109375 60.5078125 -1 58 C-1.70405843 55.10170041 -1.74504105 52.28538801 -1.75 49.3125 C-1.3819138 44.25421679 -1.3819138 44.25421679 -3 40 C-3.12581772 37.3805132 -3.18865486 34.78883026 -3.203125 32.16796875 C-3.20882507 31.37981277 -3.21452515 30.5916568 -3.22039795 29.77961731 C-3.22986318 28.10756783 -3.23638795 26.43549958 -3.24023438 24.76342773 C-3.24992043 22.20848806 -3.28092028 19.65435935 -3.3125 17.09960938 C-3.3190318 15.47656729 -3.32428158 13.85351943 -3.328125 12.23046875 C-3.3404718 11.46679489 -3.3528186 10.70312103 -3.36553955 9.91630554 C-3.34774881 5.66458621 -3.06127341 3.07390243 0 0 Z " fill="#58636D" transform="translate(197,249)"/>
<path d="M0 0 C48.69816274 -0.97556418 48.69816274 -0.97556418 58.7890625 8.71875 C60.41312579 10.73482857 61.72127592 12.75024481 63 15 C63.4125 15.71542969 63.825 16.43085938 64.25 17.16796875 C67.12800228 22.81404962 67.47087724 27.73471672 67 34 C65.35 34 63.7 34 62 34 C61.443125 32.906875 60.88625 31.81375 60.3125 30.6875 C59.75755859 29.60275391 59.75755859 29.60275391 59.19140625 28.49609375 C58 26 58 26 56.90234375 23.16015625 C54.42412417 16.71095882 54.42412417 16.71095882 49.3125 12.375 C45.40538035 10.84032492 41.46775542 10.40823478 37.296875 10.17578125 C34.24254334 9.94203138 31.73976553 9.36988276 29 8 C24.29798245 7.72217264 19.584452 7.75536114 14.875 7.75 C14.19348877 7.74866058 13.51197754 7.74732117 12.80981445 7.74594116 C-5.8171656 7.61291292 -5.8171656 7.61291292 -23 14 C-24.84078179 16.35211787 -24.84078179 16.35211787 -26.125 19.125 C-26.61484375 20.09308594 -27.1046875 21.06117188 -27.609375 22.05859375 C-29.47762703 26.01026168 -31.30810266 29.96930339 -33 34 C-34.98 34 -36.96 34 -39 34 C-39.12375 33.030625 -39.2475 32.06125 -39.375 31.0625 C-39.58125 30.051875 -39.7875 29.04125 -40 28 C-40.66 27.67 -41.32 27.34 -42 27 C-42 26.01 -42 25.02 -42 24 C-42.86625 23.690625 -42.86625 23.690625 -43.75 23.375 C-46.84477636 21.48374778 -48.1918763 19.09964063 -50 16 C-50 15.34 -50 14.68 -50 14 C-44.39 14 -38.78 14 -33 14 C-33 14.99 -33 15.98 -33 17 C-32.443125 16.0925 -31.88625 15.185 -31.3125 14.25 C-26.38884866 7.33027379 -21.10477154 5.54246215 -13 4 C-7.01984819 3.15324144 -1.0125208 2.56222692 5 2 C2.525 1.505 2.525 1.505 0 1 C0 0.67 0 0.34 0 0 Z " fill="#ACBBC7" transform="translate(249,202)"/>
<path d="M0 0 C3.87145856 3.50587289 5.4609728 6.4684434 5.8515625 11.578125 C5.86205522 14.55106249 5.78868859 17.49363008 5.61328125 20.4609375 C5.28328125 20.4609375 4.95328125 20.4609375 4.61328125 20.4609375 C4.50371094 19.91566406 4.39414062 19.37039062 4.28125 18.80859375 C3.41156906 14.67230634 2.44221947 10.57603827 1.23828125 6.5234375 C1.02429688 5.79253906 0.8103125 5.06164062 0.58984375 4.30859375 C-0.67542858 1.9146985 -1.91975719 1.47290472 -4.38671875 0.4609375 C-5.27359375 -0.0753125 -6.16046875 -0.6115625 -7.07421875 -1.1640625 C-11.84863401 -3.14589525 -16.3911883 -3.4553424 -21.37890625 -1.9296875 C-23.0839517 -1.21254392 -24.73878923 -0.37918343 -26.38671875 0.4609375 C-27.14984375 0.7496875 -27.91296875 1.0384375 -28.69921875 1.3359375 C-31.09807704 2.93517636 -31.51355413 4.77427714 -32.38671875 7.4609375 C-32.71671875 8.1209375 -33.04671875 8.7809375 -33.38671875 9.4609375 C-34.2850409 18.1287103 -34.2850409 18.1287103 -31.63671875 26.1484375 C-28.46018435 29.41320897 -25.77902484 30.51972905 -21.38671875 31.4609375 C-21.05671875 30.1409375 -20.72671875 28.8209375 -20.38671875 27.4609375 C-21.37671875 27.4609375 -22.36671875 27.4609375 -23.38671875 27.4609375 C-23.38671875 25.8109375 -23.38671875 24.1609375 -23.38671875 22.4609375 C-22.39671875 22.7909375 -21.40671875 23.1209375 -20.38671875 23.4609375 C-20.38671875 22.8009375 -20.38671875 22.1409375 -20.38671875 21.4609375 C-19.72671875 21.4609375 -19.06671875 21.4609375 -18.38671875 21.4609375 C-18.05671875 20.8009375 -17.72671875 20.1409375 -17.38671875 19.4609375 C-17.05671875 18.8009375 -16.72671875 18.1409375 -16.38671875 17.4609375 C-18.03671875 17.1309375 -19.68671875 16.8009375 -21.38671875 16.4609375 C-20.77926478 11.60130571 -18.65912908 7.7203857 -16.38671875 3.4609375 C-15.39671875 3.4609375 -14.40671875 3.4609375 -13.38671875 3.4609375 C-14.38865312 7.25397475 -15.19696102 10.17630091 -17.38671875 13.4609375 C-16.39671875 13.4609375 -15.40671875 13.4609375 -14.38671875 13.4609375 C-14.38671875 12.1409375 -14.38671875 10.8209375 -14.38671875 9.4609375 C-13.39671875 9.4609375 -12.40671875 9.4609375 -11.38671875 9.4609375 C-10.21035548 13.13707271 -10.3143968 16.62787402 -10.38671875 20.4609375 C-10.38671875 20.7909375 -10.38671875 21.1209375 -10.38671875 21.4609375 C-9.39671875 21.7909375 -8.40671875 22.1209375 -7.38671875 22.4609375 C-7.05671875 23.4509375 -6.72671875 24.4409375 -6.38671875 25.4609375 C-5.81953125 25.13867188 -5.25234375 24.81640625 -4.66796875 24.484375 C-0.95518156 22.81870678 2.62354615 22.88260893 6.61328125 23.4609375 C9.17578125 25.0234375 9.17578125 25.0234375 10.61328125 27.4609375 C11.20002969 31.494833 10.96936386 33.73329043 9.17578125 37.3984375 C5.89906647 40.0357933 3.82871968 39.98492318 -0.265625 39.9296875 C-2.38671875 39.4609375 -2.38671875 39.4609375 -3.84375 37.8671875 C-4.35292969 37.403125 -4.86210937 36.9390625 -5.38671875 36.4609375 C-7.85559295 36.65503276 -7.85559295 36.65503276 -10.51171875 37.4609375 C-17.55464952 38.979453 -21.92038533 37.1555894 -28.19921875 34.0859375 C-33.30900244 30.29009819 -35.79128998 25.49582025 -37.38671875 19.4609375 C-38.1280258 12.5420717 -36.28899337 6.59960137 -32.01171875 1.1484375 C-22.98618241 -8.09199257 -9.95663264 -7.6385696 0 0 Z " fill="#CEE0E0" transform="translate(346.38671875,157.5390625)"/>
<path d="M0 0 C0.33 0 0.66 0 1 0 C1 1.65 1 3.3 1 5 C1.82000488 4.67402832 2.64000977 4.34805664 3.48486328 4.01220703 C7.47887916 2.86210356 11.12944497 2.74689655 15.2421875 2.8046875 C16.01055939 2.8075174 16.77893127 2.81034729 17.57058716 2.81326294 C20.00555521 2.82438689 22.44014462 2.8494764 24.875 2.875 C26.53384882 2.88503989 28.19270346 2.89416397 29.8515625 2.90234375 C33.90118579 2.92430063 37.95052887 2.95877594 42 3 C42 3.33 42 3.66 42 4 C41.09628662 4.029729 41.09628662 4.029729 40.17431641 4.06005859 C11.97098068 3.47411449 11.97098068 3.47411449 -13.80078125 12.3828125 C-16.53959462 15.46902697 -18.30933094 19.26273154 -20 23 C-20.33 22.01 -20.66 21.02 -21 20 C-20.34 18.68 -19.68 17.36 -19 16 C-24.61 16 -30.22 16 -36 16 C-34.576875 18.1965625 -34.576875 18.1965625 -33.125 20.4375 C-32.32449219 21.67306641 -32.32449219 21.67306641 -31.5078125 22.93359375 C-30.16165694 25.11038871 -30.16165694 25.11038871 -28 26 C-28.33 26.99 -28.66 27.98 -29 29 C-28.60602665 31.63804589 -28.60602665 31.63804589 -28 34 C-27.01 34 -26.02 34 -25 34 C-25 34.66 -25 35.32 -25 36 C-23.02 36 -21.04 36 -19 36 C-18.62875 34.741875 -18.2575 33.48375 -17.875 32.1875 C-15.75283894 25.87106779 -13.16940935 18.34376489 -7.67578125 14.28125 C-4.81658182 12.91217348 -2.14733783 12.09757463 0.9375 11.375 C1.93652344 11.13523438 2.93554688 10.89546875 3.96484375 10.6484375 C9.37127687 9.49339516 14.43419596 8.87242128 19.97265625 8.8671875 C21.28427734 8.86589844 22.59589844 8.86460937 23.94726562 8.86328125 C24.62313721 8.86537598 25.29900879 8.8674707 25.99536133 8.86962891 C28.060133 8.87499385 30.12468805 8.8696608 32.18945312 8.86328125 C34.15495117 8.86521484 34.15495117 8.86521484 36.16015625 8.8671875 C37.35261963 8.86831543 38.54508301 8.86944336 39.77368164 8.87060547 C42.64340808 8.98569855 45.21230835 9.33862516 48 10 C48 10.33 48 10.66 48 11 C47.15928955 10.98952637 46.3185791 10.97905273 45.45239258 10.96826172 C42.26718197 10.93372777 39.08206824 10.90888504 35.89672852 10.89013672 C34.5304852 10.88021437 33.16426231 10.86667214 31.7980957 10.84912109 C22.6375268 10.73457187 14.00819001 11.35781165 5 13 C3.73542969 13.16757813 2.47085938 13.33515625 1.16796875 13.5078125 C-3.03459041 14.37806721 -6.56671466 15.17926901 -9.32763672 18.68652344 C-12.8498813 24.38973739 -15.37535653 30.50142611 -17 37 C-10.07 37.495 -10.07 37.495 -3 38 C-3.66 38.66 -4.32 39.32 -5 40 C-7.07911102 39.79549728 -9.15771566 39.58149948 -11.23046875 39.3203125 C-20.66338317 37.85315077 -20.66338317 37.85315077 -29.38671875 40.5625 C-31.10595655 42.2921997 -32.6007575 44.00544342 -34 46 C-34.625 44.125 -34.625 44.125 -35 42 C-34.34 41.34 -33.68 40.68 -33 40 C-33.99580078 39.96132812 -33.99580078 39.96132812 -35.01171875 39.921875 C-39.25080647 39.64958323 -42.34621427 39.35304429 -46.125 37.3125 C-48 35 -48 35 -48.4375 31.875 C-48 29 -48 29 -46 27 C-44.01643517 26.28591666 -42.01684563 25.61382258 -40 25 C-40.56589844 24.50371094 -41.13179687 24.00742188 -41.71484375 23.49609375 C-48.45160382 17.25659892 -48.45160382 17.25659892 -49 13 C-49 12.01 -49 11.02 -49 10 C-48.45061768 10.97247681 -48.45061768 10.97247681 -47.89013672 11.96459961 C-46.12816107 14.26618705 -46.12816107 14.26618705 -43.16845703 14.53344727 C-39.48600922 14.56903284 -35.80759639 14.5938334 -32.125 14.5625 C-30.84496094 14.58634766 -29.56492188 14.61019531 -28.24609375 14.63476562 C-20.88205374 14.93216588 -20.88205374 14.93216588 -14.66796875 11.640625 C-12.99311836 8.98910541 -12.26666222 7.11105927 -12 4 C-11.505 5.98 -11.505 5.98 -11 8 C-10.278125 7.67 -9.55625 7.34 -8.8125 7 C-5.98302573 5.99396471 -3.97104534 5.83022598 -1 6 C-0.67 4.02 -0.34 2.04 0 0 Z " fill="#4F595E" transform="translate(235,200)"/>
<path d="M0 0 C12.87 0 25.74 0 39 0 C39 3.96 39 7.92 39 12 C26.13 12 13.26 12 0 12 C0 8.04 0 4.08 0 0 Z " fill="#777E84" transform="translate(244,278)"/>
<path d="M0 0 C0.99 0.33 1.98 0.66 3 1 C4.73942121 15.81810725 4.48521042 30.77546627 3.1875 45.625 C3.11748779 46.49487549 3.04747559 47.36475098 2.9753418 48.26098633 C2.51543928 52.89164981 1.85909355 56.16176483 -1 60 C-3.77407649 59.96701098 -6.54005929 59.89990921 -9.3125 59.8125 C-10.09818359 59.80669922 -10.88386719 59.80089844 -11.69335938 59.79492188 C-17.44445294 59.57466723 -17.44445294 59.57466723 -20.04296875 56.88671875 C-21.18067171 53.45503513 -21.21133015 50.59261253 -21 47 C-20.04738281 46.80664062 -19.09476562 46.61328125 -18.11328125 46.4140625 C-16.23189453 46.02347656 -16.23189453 46.02347656 -14.3125 45.625 C-13.07113281 45.36976563 -11.82976562 45.11453125 -10.55078125 44.8515625 C-5.05681154 43.80083977 -5.05681154 43.80083977 -0.87670898 40.47216797 C0.42861334 36.79138438 0.24440932 33.15210132 0.1953125 29.296875 C0.19106766 28.04019012 0.19106766 28.04019012 0.18673706 26.75811768 C0.17556349 24.08859837 0.15046421 21.4194175 0.125 18.75 C0.11496654 16.93750485 0.10584133 15.12500444 0.09765625 13.3125 C0.0756334 8.87487007 0.04112304 4.43749237 0 0 Z " fill="#768697" transform="translate(329,250)"/>
<path d="M0 0 C0 0.66 0 1.32 0 2 C0.99 2.33 1.98 2.66 3 3 C2.34773438 3.16113281 1.69546875 3.32226562 1.0234375 3.48828125 C-4.59128063 5.23563453 -7.5243844 6.94177954 -10.375 12.1875 C-11.28418852 14.10919391 -12.16002581 16.04706001 -13 18 C-13.4125 18.8971875 -13.825 19.794375 -14.25 20.71875 C-15.19874519 22.8007186 -16.11454367 24.89053051 -17 27 C-18.98 27 -20.96 27 -23 27 C-23.12375 26.030625 -23.2475 25.06125 -23.375 24.0625 C-23.58125 23.051875 -23.7875 22.04125 -24 21 C-24.66 20.67 -25.32 20.34 -26 20 C-26 19.01 -26 18.02 -26 17 C-26.86625 16.690625 -26.86625 16.690625 -27.75 16.375 C-30.84477636 14.48374778 -32.1918763 12.09964063 -34 9 C-34 8.34 -34 7.68 -34 7 C-28.39 7 -22.78 7 -17 7 C-17 7.99 -17 8.98 -17 10 C-16.443125 9.0925 -15.88625 8.185 -15.3125 7.25 C-11.09753129 1.32626019 -7.29062998 -1.77339648 0 0 Z " fill="#ADBDCA" transform="translate(233,209)"/>
<path d="M0 0 C1.41152344 0.41572266 1.41152344 0.41572266 2.8515625 0.83984375 C4.09679687 1.20207031 5.34203125 1.56429688 6.625 1.9375 C7.85476562 2.29714844 9.08453125 2.65679687 10.3515625 3.02734375 C13.56810836 3.88485972 16.70921999 4.51903985 20 5 C20.08131463 6.43655854 20.13933559 7.8744483 20.1875 9.3125 C20.23970703 10.51326172 20.23970703 10.51326172 20.29296875 11.73828125 C20 14 20 14 18.92578125 15.76953125 C15.98807812 17.64656266 13.44619501 17.39653872 10 17.375 C8.7625 17.38273437 7.525 17.39046875 6.25 17.3984375 C3 17 3 17 1.07421875 15.92578125 C-0.60564215 12.9142488 -0.28123104 10.21806112 -0.1875 6.8125 C-0.16042969 5.54019531 -0.13335937 4.26789063 -0.10546875 2.95703125 C-0.07066406 1.98121094 -0.03585938 1.00539063 0 0 Z " fill="#778799" transform="translate(198,292)"/>
<path d="M0 0 C0.95310059 0.01047363 1.90620117 0.02094727 2.88818359 0.03173828 C4.43505859 0.04140625 4.43505859 0.04140625 6.01318359 0.05126953 C7.63353516 0.07640625 7.63353516 0.07640625 9.28662109 0.10205078 C10.37458984 0.11107422 11.46255859 0.12009766 12.58349609 0.12939453 C15.27642261 0.15301669 17.96891365 0.18595522 20.66162109 0.22705078 C20.78271484 2.59423828 20.78271484 2.59423828 20.66162109 5.22705078 C16.33639621 9.97084582 10.16934929 11.94999468 3.89208984 12.44580078 C1.45629217 12.47367829 -0.91512097 12.47706946 -3.33837891 12.22705078 C-4.92731963 10.63811006 -4.50836302 8.97903654 -4.52587891 6.78955078 C-4.54005859 5.98646484 -4.55423828 5.18337891 -4.56884766 4.35595703 C-4.22391024 1.16967073 -3.14577429 0.30544687 0 0 Z " fill="#EEF0F0" transform="translate(305.33837890625,259.77294921875)"/>
<path d="M0 0 C3.97915159 -0.02886984 7.95827653 -0.04675406 11.9375 -0.0625 C13.07380859 -0.07087891 14.21011719 -0.07925781 15.38085938 -0.08789062 C16.46044922 -0.09111328 17.54003906 -0.09433594 18.65234375 -0.09765625 C20.15269165 -0.10551147 20.15269165 -0.10551147 21.68334961 -0.11352539 C24 0 24 0 25 1 C25.07226502 2.85287502 25.0838122 4.70833878 25.0625 6.5625 C25.05347656 7.57441406 25.04445312 8.58632813 25.03515625 9.62890625 C25.02355469 10.41136719 25.01195312 11.19382812 25 12 C16.03421655 12.61362776 8.66428256 11.55373909 1.375 6 C0 4 0 4 0 0 Z " fill="#EEF0F1" transform="translate(200,260)"/>
<path d="M0 0 C0.33 2.64 0.66 5.28 1 8 C5.29 8 9.58 8 14 8 C14.33 9.32 14.66 10.64 15 12 C10.38 12 5.76 12 1 12 C0.67 14.64 0.34 17.28 0 20 C-3.5875213 18.66749209 -6.8364623 17.169283 -10 15 C-10 14.34 -10 13.68 -10 13 C-12.475 12.01 -12.475 12.01 -15 11 C-14.67 10.01 -14.34 9.02 -14 8 C-11.9375 7.3125 -11.9375 7.3125 -10 7 C-10 6.34 -10 5.68 -10 5 C-8.57421875 3.7109375 -8.57421875 3.7109375 -6.6875 2.375 C-6.07261719 1.92898437 -5.45773438 1.48296875 -4.82421875 1.0234375 C-3 0 -3 0 0 0 Z " fill="#BEC7D0" transform="translate(260,164)"/>
<path d="M0 0 C2.5625 1.5625 2.5625 1.5625 4 4 C4.58674844 8.0338955 4.35608261 10.27235293 2.5625 13.9375 C-0.71421478 16.5748558 -2.78456157 16.52398568 -6.87890625 16.46875 C-9.51800261 15.88552428 -10.43490782 15.19309154 -12 13 C-12.74591019 9.02912516 -12.44636548 5.22006566 -11.0625 1.4375 C-7.62255611 -0.96003665 -4.03585148 -0.70663826 0 0 Z " fill="#596869" transform="translate(353,181)"/>
<path d="M0 0 C0.61875 0.33 1.2375 0.66 1.875 1 C2.5625 4.3125 2.5625 4.3125 2.875 8 C1.37097949 10.14860073 0.20395015 10.83552492 -2.125 12 C-3.82863822 12.22622081 -5.53828701 12.40888473 -7.25 12.5625 C-8.61511719 12.68818359 -8.61511719 12.68818359 -10.0078125 12.81640625 C-10.70648438 12.87699219 -11.40515625 12.93757812 -12.125 13 C-11.465 14.32 -10.805 15.64 -10.125 17 C-11.775 15.68 -13.425 14.36 -15.125 13 C-14.795 12.01 -14.465 11.02 -14.125 10 C-14.20961492 8.26675881 -14.36104355 6.53607188 -14.5625 4.8125 C-14.66433594 3.91144531 -14.76617187 3.01039063 -14.87109375 2.08203125 C-14.95488281 1.39496094 -15.03867187 0.70789063 -15.125 0 C-10.67416655 -2.22541672 -4.60248787 -1.47279612 0 0 Z " fill="#ADBAC4" transform="translate(337.125,227)"/>
<path d="M0 0 C11.55 0 23.1 0 35 0 C35 2.97 35 5.94 35 9 C32.36 9 29.72 9 27 9 C27.33 6.36 27.66 3.72 28 1 C27.34 1 26.68 1 26 1 C25.67 2.32 25.34 3.64 25 5 C24.67 3.68 24.34 2.36 24 1 C23.34 1 22.68 1 22 1 C21.34 2.32 20.68 3.64 20 5 C20 3.68 20 2.36 20 1 C19.34 1 18.68 1 18 1 C18.33 1.66 18.66 2.32 19 3 C19.039992 4.99960012 19.04346799 7.00047242 19 9 C17.68 9 16.36 9 15 9 C15.33 6.69 15.66 4.38 16 2 C15.67 2.33 15.34 2.66 15 3 C14.34 3.66 13.68 4.32 13 5 C13 3.68 13 2.36 13 1 C12.01 1 11.02 1 10 1 C9.67 2.32 9.34 3.64 9 5 C9 3.68 9 2.36 9 1 C8.34 1 7.68 1 7 1 C7.33 3.64 7.66 6.28 8 9 C5.36 9 2.72 9 0 9 C0 6.03 0 3.06 0 0 Z " fill="#DFE2E6" transform="translate(246,279)"/>
<path d="M0 0 C3.87145856 3.50587289 5.4609728 6.4684434 5.8515625 11.578125 C5.86205522 14.55106249 5.78868859 17.49363008 5.61328125 20.4609375 C5.28328125 20.4609375 4.95328125 20.4609375 4.61328125 20.4609375 C4.50371094 19.91566406 4.39414062 19.37039062 4.28125 18.80859375 C3.41156906 14.67230634 2.44221947 10.57603827 1.23828125 6.5234375 C1.02429688 5.79253906 0.8103125 5.06164062 0.58984375 4.30859375 C-0.67542858 1.9146985 -1.91975719 1.47290472 -4.38671875 0.4609375 C-5.27359375 -0.0753125 -6.16046875 -0.6115625 -7.07421875 -1.1640625 C-11.84863401 -3.14589525 -16.3911883 -3.4553424 -21.37890625 -1.9296875 C-23.0839517 -1.21254392 -24.73878923 -0.37918343 -26.38671875 0.4609375 C-27.14984375 0.7496875 -27.91296875 1.0384375 -28.69921875 1.3359375 C-31.09807704 2.93517636 -31.51355413 4.77427714 -32.38671875 7.4609375 C-32.71671875 8.1209375 -33.04671875 8.7809375 -33.38671875 9.4609375 C-33.87938341 15.30830161 -34.29583315 20.6427087 -31.63671875 25.9609375 C-30.89421875 26.7859375 -30.15171875 27.6109375 -29.38671875 28.4609375 C-28.64421875 29.4096875 -27.90171875 30.3584375 -27.13671875 31.3359375 C-26.27046875 32.3878125 -26.27046875 32.3878125 -25.38671875 33.4609375 C-30.36459261 31.24854912 -34.09024882 28.79153871 -36.19921875 23.6484375 C-38.43619327 16.73299054 -37.64433182 10.84637825 -34.38671875 4.4609375 C-31.26611838 -0.3003909 -27.58150227 -3.58926199 -22.07421875 -5.2265625 C-13.49506428 -6.2241386 -6.96383445 -5.34254261 0 0 Z " fill="#818A8B" transform="translate(346.38671875,157.5390625)"/>
<path d="M0 0 C1.31162109 -0.00128906 2.62324219 -0.00257813 3.97460938 -0.00390625 C4.65048096 -0.00181152 5.32635254 0.0002832 6.02270508 0.00244141 C8.08747675 0.00780635 10.1520318 0.0024733 12.21679688 -0.00390625 C14.18229492 -0.00197266 14.18229492 -0.00197266 16.1875 0 C17.37996338 0.00112793 18.57242676 0.00225586 19.80102539 0.00341797 C22.67075183 0.11851105 25.2396521 0.47143766 28.02734375 1.1328125 C28.02734375 1.4628125 28.02734375 1.7928125 28.02734375 2.1328125 C27.1866333 2.12233887 26.34592285 2.11186523 25.47973633 2.10107422 C22.29452572 2.06654027 19.10941199 2.04169754 15.92407227 2.02294922 C14.55782895 2.01302687 13.19160606 1.99948464 11.82543945 1.98193359 C2.66487055 1.86738437 -5.96446624 2.49062415 -14.97265625 4.1328125 C-16.23722656 4.30039063 -17.50179687 4.46796875 -18.8046875 4.640625 C-23.00724666 5.51087971 -26.53937091 6.31208151 -29.30029297 9.81933594 C-32.82253755 15.52254989 -35.34801278 21.63423861 -36.97265625 28.1328125 C-30.04265625 28.6278125 -30.04265625 28.6278125 -22.97265625 29.1328125 C-23.63265625 29.7928125 -24.29265625 30.4528125 -24.97265625 31.1328125 C-27.05176727 30.92830978 -29.13037191 30.71431198 -31.203125 30.453125 C-40.63603942 28.98596327 -40.63603942 28.98596327 -49.359375 31.6953125 C-51.0786128 33.4250122 -52.57341375 35.13825592 -53.97265625 37.1328125 C-53.97265625 33.22442384 -52.46697749 32.01687143 -49.97265625 29.1328125 C-53.93265625 29.1328125 -57.89265625 29.1328125 -61.97265625 29.1328125 C-61.97265625 28.8028125 -61.97265625 28.4728125 -61.97265625 28.1328125 C-58.01265625 28.1328125 -54.05265625 28.1328125 -49.97265625 28.1328125 C-49.64265625 27.4728125 -49.31265625 26.8128125 -48.97265625 26.1328125 C-47.98265625 26.7928125 -46.99265625 27.4528125 -45.97265625 28.1328125 C-45.64265625 27.1428125 -45.31265625 26.1528125 -44.97265625 25.1328125 C-44.97265625 25.7928125 -44.97265625 26.4528125 -44.97265625 27.1328125 C-42.99265625 27.1328125 -41.01265625 27.1328125 -38.97265625 27.1328125 C-38.60140625 25.8746875 -38.23015625 24.6165625 -37.84765625 23.3203125 C-35.72549519 17.00388029 -33.1420656 9.47657739 -27.6484375 5.4140625 C-24.78923807 4.04498598 -22.11999408 3.23038713 -19.03515625 2.5078125 C-18.03613281 2.26804688 -17.03710938 2.02828125 -16.0078125 1.78125 C-10.60137938 0.62620766 -5.53846029 0.00523378 0 0 Z " fill="#505960" transform="translate(254.97265625,208.8671875)"/>
<path d="M0 0 C4.21285902 1.7787627 5.93145393 3.97177871 8 8 C-0.07953776 9.81344335 -7.73252149 10.23658921 -16 10 C-15.3046875 5.28125 -15.3046875 5.28125 -12.5625 2.75 C-8.36159762 -0.11890894 -5.03252548 -0.53228635 0 0 Z " fill="#E8EAED" transform="translate(293,230)"/>
<path d="M0 0 C0.99 0.495 0.99 0.495 2 1 C-4.63729312 4.52350129 -10.513226 5.7201206 -18 6 C-17.69078116 7.45903258 -17.37751201 8.91720722 -17.0625 10.375 C-16.80146484 11.59316406 -16.80146484 11.59316406 -16.53515625 12.8359375 C-16.07669307 15.029463 -16.07669307 15.029463 -15 17 C-12.45058627 17.31241371 -9.99638487 17.51303421 -7.4375 17.625 C-6.72658203 17.66367187 -6.01566406 17.70234375 -5.28320312 17.7421875 C-3.52257575 17.83671783 -1.76132272 17.91945817 0 18 C0 18.66 0 19.32 0 20 C-12.53104884 20.7630544 -12.53104884 20.7630544 -16.0078125 18.95703125 C-18.76993374 16.13702124 -19.98456387 13.77180635 -20.0625 9.875 C-20.041875 8.92625 -20.02125 7.9775 -20 7 C-20.67318771 7.16265854 -21.34637543 7.32531708 -22.03996277 7.49290466 C-25.52894242 8.09061516 -28.81953183 8.11955787 -32.3605957 8.11352539 C-33.08309006 8.11367142 -33.80558441 8.11381744 -34.54997253 8.1139679 C-36.92527322 8.11327422 -39.30049435 8.10550745 -41.67578125 8.09765625 C-43.32773292 8.09579013 -44.97968515 8.09436714 -46.63163757 8.09336853 C-50.97007792 8.08955861 -55.30848455 8.07974139 -59.64691162 8.06866455 C-64.07775415 8.0584176 -68.50860215 8.05386388 -72.93945312 8.04882812 C-81.62631752 8.03811771 -90.31315456 8.02105966 -99 8 C-99 7.67 -99 7.34 -99 7 C-98.23008728 6.99191315 -97.46017456 6.98382629 -96.66693115 6.97549438 C-89.31495792 6.89667733 -81.96315896 6.8091473 -74.6114006 6.71247292 C-70.83423072 6.66309384 -67.05708129 6.61677351 -63.27978516 6.578125 C-32.71656582 6.95560258 -32.71656582 6.95560258 -3 1 C-2.01 0.67 -1.02 0.34 0 0 Z " fill="#303439" transform="translate(326,291)"/>
<path d="M0 0 C2.35953094 2.35953094 2.49141413 3.77895617 3 7 C3.66 7 4.32 7 5 7 C5 7.99 5 8.98 5 10 C3.68 10 2.36 10 1 10 C0.9175 10.598125 0.835 11.19625 0.75 11.8125 C-0.20455872 14.5966296 -1.57132271 15.43311142 -4 17 C-3.34 15.68 -2.68 14.36 -2 13 C-2.69867188 12.95101562 -3.39734375 12.90203125 -4.1171875 12.8515625 C-5.02726563 12.77679688 -5.93734375 12.70203125 -6.875 12.625 C-7.77992188 12.55539063 -8.68484375 12.48578125 -9.6171875 12.4140625 C-12 12 -12 12 -14 10 C-14 9.34 -14 8.68 -14 8 C-14.31802943 6.33034549 -14.64984951 4.66321482 -15 3 C-10.10089692 1.40029287 -6.20790853 0.89584183 -1 1 C-0.67 0.67 -0.34 0.34 0 0 Z " fill="#AAB6BF" transform="translate(204,227)"/>
<path d="M0 0 C13.23677673 0.54249085 13.23677673 0.54249085 18 5 C21.30785359 10.34998016 23.91644894 15.96277355 26.03125 21.890625 C26.3509375 22.58671875 26.670625 23.2828125 27 24 C29.54775306 24.89386164 29.54775306 24.89386164 32 25 C31.67 23.02 31.34 21.04 31 19 C34 20 34 20 35.1875 22.0625 C35.455625 22.701875 35.72375 23.34125 36 24 C36.66 22.68 37.32 21.36 38 20 C38.33 20 38.66 20 39 20 C39 21.98 39 23.96 39 26 C42.63 26 46.26 26 50 26 C50 26.33 50 26.66 50 27 C46.04 27 42.08 27 38 27 C40.21928194 29.90802461 41.92969143 31.95312762 45 34 C44.67 35.32 44.34 36.64 44 38 C43.57074219 37.278125 43.14148438 36.55625 42.69921875 35.8125 C38.7580188 30.25307793 38.7580188 30.25307793 32.70898438 27.52636719 C27.1149963 27.1064951 21.57662029 27.48942439 16 28 C16.66 27.01 17.32 26.02 18 25 C18 25.66 18 26.32 18 27 C21.465 26.505 21.465 26.505 25 26 C24.11842266 23.61883234 23.2205241 21.24607516 22.3125 18.875 C22.06822266 18.20984375 21.82394531 17.5446875 21.57226562 16.859375 C19.71820865 12.07168357 17.71711092 8.59039123 14 5 C10.47438704 3.44466927 10.47438704 3.44466927 6.6875 2.625 C5.43324219 2.30789062 4.17898438 1.99078125 2.88671875 1.6640625 C1.45779297 1.33535156 1.45779297 1.33535156 0 1 C0 0.67 0 0.34 0 0 Z " fill="#555E65" transform="translate(284,211)"/>
<path d="M0 0 C5.61 0 11.22 0 17 0 C15.90987395 6.12147704 14.68095324 11.3943705 12 17 C11.67 15.68 11.34 14.36 11 13 C10.01 13 9.02 13 8 13 C8 12.01 8 11.02 8 10 C7.4225 9.79375 6.845 9.5875 6.25 9.375 C3.15522364 7.48374778 1.8081237 5.09964063 0 2 C0 1.34 0 0.68 0 0 Z " fill="#748185" transform="translate(199,216)"/>
<path d="M0 0 C0.99 0.33 1.98 0.66 3 1 C3.81620703 7.95325736 4.19235039 14.81277545 4.1875 21.8125 C4.18814453 22.79355713 4.18878906 23.77461426 4.18945312 24.78540039 C4.11804126 34.92507309 3.16336205 44.93484085 2 55 C1.34 55 0.68 55 0 55 C-0.33 55.66 -0.66 56.32 -1 57 C-1.22114415 54.20880221 -1.42743301 51.4178788 -1.625 48.625 C-1.68945312 47.8309375 -1.75390625 47.036875 -1.8203125 46.21875 C-1.96058587 44.14971776 -1.98758237 42.07374464 -2 40 C-1.34 39.34 -0.68 38.68 0 38 C0.17532289 35.13111419 0.23137614 32.36007355 0.1953125 29.4921875 C0.1924826 28.65156769 0.18965271 27.81094788 0.18673706 26.94485474 C0.1755243 24.25475954 0.15041803 21.5649949 0.125 18.875 C0.1149716 17.05339022 0.10584551 15.23177523 0.09765625 13.41015625 C0.07558142 8.93997642 0.04104434 4.47004429 0 0 Z " fill="#777E87" transform="translate(329,250)"/>
<path d="M0 0 C0.33 0 0.66 0 1 0 C1 1.65 1 3.3 1 5 C1.82000488 4.67402832 2.64000977 4.34805664 3.48486328 4.01220703 C7.47887916 2.86210356 11.12944497 2.74689655 15.2421875 2.8046875 C16.01055939 2.8075174 16.77893127 2.81034729 17.57058716 2.81326294 C20.00555521 2.82438689 22.44014462 2.8494764 24.875 2.875 C26.53384882 2.88503989 28.19270346 2.89416397 29.8515625 2.90234375 C33.90118579 2.92430063 37.95052887 2.95877594 42 3 C42 3.33 42 3.66 42 4 C41.09628662 4.029729 41.09628662 4.029729 40.17431641 4.06005859 C11.97098068 3.47411449 11.97098068 3.47411449 -13.80078125 12.3828125 C-16.53959462 15.46902697 -18.30933094 19.26273154 -20 23 C-20.33 22.01 -20.66 21.02 -21 20 C-20.34 18.68 -19.68 17.36 -19 16 C-24.61 16 -30.22 16 -36 16 C-36.33 16.66 -36.66 17.32 -37 18 C-37 17.34 -37 16.68 -37 16 C-40.3 16 -43.6 16 -47 16 C-47 15.67 -47 15.34 -47 15 C-46.14768799 14.99589111 -45.29537598 14.99178223 -44.41723633 14.98754883 C-41.23904652 14.9604958 -38.06216708 14.9113357 -34.88452148 14.84741211 C-33.51224569 14.82429022 -32.13979391 14.80984997 -30.76733398 14.80444336 C-28.78865529 14.79511335 -26.81023376 14.75142981 -24.83203125 14.70703125 C-23.64327393 14.6913208 -22.4545166 14.67561035 -21.22973633 14.65942383 C-17.10630591 13.81753211 -15.60974331 12.23375367 -13 9 C-12.12761142 6.32209104 -12.12761142 6.32209104 -12 4 C-11.505 5.98 -11.505 5.98 -11 8 C-10.278125 7.67 -9.55625 7.34 -8.8125 7 C-5.98302573 5.99396471 -3.97104534 5.83022598 -1 6 C-0.67 4.02 -0.34 2.04 0 0 Z " fill="#4B585F" transform="translate(235,200)"/>
<path d="M0 0 C3.96 0 7.92 0 12 0 C12 3.96 12 7.92 12 12 C8.7 12 5.4 12 2 12 C0.29427716 7.52247755 0 5.01632918 0 0 Z " fill="#D9EEEC" transform="translate(197,203)"/>
<path d="M0 0 C0.99 0.33 1.98 0.66 3 1 C2.88630789 3.45933991 2.75957349 5.9167909 2.625 8.375 C2.57859375 9.42300781 2.57859375 9.42300781 2.53125 10.4921875 C2.2265625 15.7734375 2.2265625 15.7734375 0 18 C-3.125 18.125 -3.125 18.125 -6 18 C-6 17.67 -6 17.34 -6 17 C-4.35 16.67 -2.7 16.34 -1 16 C-1 12.37 -1 8.74 -1 5 C-8.92 4.67 -16.84 4.34 -25 4 C-24.67 5.98 -24.34 7.96 -24 10 C-21.810364 11.37745444 -21.810364 11.37745444 -19 12 C-17.97261719 12.35320312 -16.94523438 12.70640625 -15.88671875 13.0703125 C-14.83097656 13.41835938 -13.77523437 13.76640625 -12.6875 14.125 C-11.08455078 14.65480469 -11.08455078 14.65480469 -9.44921875 15.1953125 C-8.64097656 15.46085937 -7.83273438 15.72640625 -7 16 C-7 16.33 -7 16.66 -7 17 C-13.93292475 16.66986073 -19.44012756 15.36091475 -25 11 C-26.31640625 9.14453125 -26.31640625 9.14453125 -27 7 C-26.67 5.35 -26.34 3.7 -26 2 C-17.42 2 -8.84 2 0 2 C0 1.34 0 0.68 0 0 Z " fill="#5D676E" transform="translate(225,256)"/>
<path d="M0 0 C3.63 0 7.26 0 11 0 C11.9681648 3.8726592 12.07622858 7.03611362 12 11 C8.04 11 4.08 11 0 11 C0 7.37 0 3.74 0 0 Z " fill="#D9EEED" transform="translate(211,190)"/>
<path d="M0 0 C3.63 0 7.26 0 11 0 C11 3.63 11 7.26 11 11 C7.04 11 3.08 11 -1 11 C-0.67 7.37 -0.34 3.74 0 0 Z " fill="#D8EEEC" transform="translate(198,190)"/>
<path d="M0 0 C2.1875 0.0625 2.1875 0.0625 5 1 C11.74366082 8.89501755 14.78070169 16.61233024 14 27 C12.35 27 10.7 27 9 27 C8.32845067 25.71086513 7.66291141 24.41859796 7 23.125 C6.62875 22.40570313 6.2575 21.68640625 5.875 20.9453125 C5 19 5 19 5 17 C5.99 17 6.98 17 8 17 C7.49835842 9.72619715 5.56612198 5.00950979 0 0 Z " fill="#A2B1BD" transform="translate(302,209)"/>
<path d="M0 0 C3.96 0 7.92 0 12 0 C12 6 12 6 10.8984375 7.8984375 C10.39570313 8.38570312 9.89296875 8.87296875 9.375 9.375 C8.88773438 9.87773437 8.40046875 10.38046875 7.8984375 10.8984375 C6 12 6 12 0 12 C0 8.04 0 4.08 0 0 Z " fill="#D8EEED" transform="translate(211,203)"/>
<path d="M0 0 C3.3 0 6.6 0 10 0 C10.33 3.96 10.66 7.92 11 12 C9.72125 12.061875 8.4425 12.12375 7.125 12.1875 C6.40570313 12.22230469 5.68640625 12.25710937 4.9453125 12.29296875 C4.30335938 12.19628906 3.66140625 12.09960938 3 12 C2.34 11.01 1.68 10.02 1 9 C0.01 9.495 0.01 9.495 -1 10 C-1.33 8.35 -1.66 6.7 -2 5 C-1.67 5 -1.34 5 -1 5 C-0.67 3.35 -0.34 1.7 0 0 Z " fill="#D6EBEA" transform="translate(186,203)"/>
<path d="M0 0 C1.60294922 0.00773437 1.60294922 0.00773437 3.23828125 0.015625 C4.35332031 0.03625 5.46835937 0.056875 6.6171875 0.078125 C8.30134766 0.08585937 8.30134766 0.08585937 10.01953125 0.09375 C18.33828411 0.17422161 18.33828411 0.17422161 19.4921875 1.328125 C19.4921875 4.69156338 19.47105805 7.28992896 17.07421875 9.83203125 C11.98941141 13.59231924 6.8999771 15.7050538 0.4921875 15.328125 C3.89996295 13.0562747 7.30674223 11.7797232 11.1171875 10.328125 C13.68866401 9.33317005 13.68866401 9.33317005 16.4921875 7.328125 C17.22184116 4.76529758 17.22184116 4.76529758 17.4921875 2.328125 C13.67936805 2.46628029 9.86703033 2.61493062 6.0546875 2.765625 C4.42176758 2.82459961 4.42176758 2.82459961 2.75585938 2.88476562 C1.20415039 2.94760742 1.20415039 2.94760742 -0.37890625 3.01171875 C-1.33724365 3.04837646 -2.29558105 3.08503418 -3.28295898 3.12280273 C-5.47920175 3.08646924 -5.47920175 3.08646924 -6.5078125 4.328125 C-6.57961214 5.84740538 -6.59173257 7.36979982 -6.5703125 8.890625 C-6.56128906 9.71691406 -6.55226563 10.54320312 -6.54296875 11.39453125 C-6.53136719 12.03261719 -6.51976562 12.67070312 -6.5078125 13.328125 C-4.0328125 14.318125 -4.0328125 14.318125 -1.5078125 15.328125 C-1.5078125 15.658125 -1.5078125 15.988125 -1.5078125 16.328125 C-3.50735996 16.37066856 -5.50822886 16.36893283 -7.5078125 16.328125 C-9.31053032 14.52540718 -8.72283534 11.88403751 -8.7578125 9.453125 C-8.78359375 8.38320313 -8.809375 7.31328125 -8.8359375 6.2109375 C-8.5078125 3.328125 -8.5078125 3.328125 -7.33154297 1.66845703 C-4.81578644 -0.18047247 -3.10133935 -0.02947365 0 0 Z " fill="#5A636A" transform="translate(308.5078125,257.671875)"/>
<path d="M0 0 C1.9375 0.5625 1.9375 0.5625 4 2 C5.00611184 5.62200262 5.44387305 7.91805945 4 11.4375 C1.00607014 13.7765077 -1.31994536 13.40146051 -5 13 C-7.8086289 10.1913711 -7.72711179 7.88865706 -8 4 C-7.34 3.01 -6.68 2.02 -6 1 C-5.01 1.33 -4.02 1.66 -3 2 C-3 3.98 -3 5.96 -3 8 C-1.35 8 0.3 8 2 8 C2 7.34 2 6.68 2 6 C1.01 6 0.02 6 -1 6 C-0.67 4.02 -0.34 2.04 0 0 Z " fill="#D3E6E6" transform="translate(350,182)"/>
<path d="M0 0 C7.59 0 15.18 0 23 0 C23 0.33 23 0.66 23 1 C19.37 1 15.74 1 12 1 C12 4.63 12 8.26 12 12 C15.96 12 19.92 12 24 12 C24 12.33 24 12.66 24 13 C20.04 13 16.08 13 12 13 C12 17.29 12 21.58 12 26 C11.34 26 10.68 26 10 26 C10 22.04 10 18.08 10 14 C6.04 14 2.08 14 -2 14 C-2 13.34 -2 12.68 -2 12 C1.96 12 5.92 12 10 12 C10 8.37 10 4.74 10 1 C6.7 1 3.4 1 0 1 C0 0.67 0 0.34 0 0 Z " fill="#809494" transform="translate(199,189)"/>
<path d="M0 0 C0.66 0.66 1.32 1.32 2 2 C1.71202981 3.34386088 1.36784131 4.6757713 1 6 C0.96154557 7.99963028 0.95455719 10.00051633 1 12 C-1.97 12 -4.94 12 -8 12 C-8.66 8.37 -9.32 4.74 -10 1 C-8.535625 1.020625 -7.07125 1.04125 -5.5625 1.0625 C-4.04167482 1.08392007 -2.51928038 1.07179964 -1 1 C-0.67 0.67 -0.34 0.34 0 0 Z " fill="#D6EAE9" transform="translate(233,189)"/>
<path d="M0 0 C1.2783157 2.5566314 0.70216371 3.28584732 0 6 C-0.08526747 7.74083689 -0.11775578 9.48462032 -0.11352539 11.22753906 C-0.11344986 12.26831604 -0.11337433 13.30909302 -0.11329651 14.38140869 C-0.10813522 15.49820007 -0.10297394 16.61499146 -0.09765625 17.765625 C-0.0962413 18.91415955 -0.09482635 20.06269409 -0.09336853 21.24603271 C-0.08777143 24.91404831 -0.07521944 28.58200285 -0.0625 32.25 C-0.05748463 34.73697829 -0.05292178 37.22395753 -0.04882812 39.7109375 C-0.03780295 45.8073125 -0.02106769 51.90365189 0 58 C-0.33 58 -0.66 58 -1 58 C-1.06058594 56.78441406 -1.12117187 55.56882812 -1.18359375 54.31640625 C-1.26798332 52.73175772 -1.3526321 51.14712298 -1.4375 49.5625 C-1.47681641 48.76005859 -1.51613281 47.95761719 -1.55664062 47.13085938 C-1.4054296 43.24760439 -1.4054296 43.24760439 -3 40 C-3.12581772 37.3805132 -3.18865486 34.78883026 -3.203125 32.16796875 C-3.20882507 31.37981277 -3.21452515 30.5916568 -3.22039795 29.77961731 C-3.22986318 28.10756783 -3.23638795 26.43549958 -3.24023438 24.76342773 C-3.24992043 22.20848806 -3.28092028 19.65435935 -3.3125 17.09960938 C-3.3190318 15.47656729 -3.32428158 13.85351943 -3.328125 12.23046875 C-3.3404718 11.46679489 -3.3528186 10.70312103 -3.36553955 9.91630554 C-3.34774881 5.66458621 -3.06127341 3.07390243 0 0 Z " fill="#6F767D" transform="translate(197,249)"/>
<path d="M0 0 C1.9453125 -0.29296875 1.9453125 -0.29296875 4.125 -0.1875 C5.40375 -0.125625 6.6825 -0.06375 8 0 C7.67 3.63 7.34 7.26 7 11 C3.7 11 0.4 11 -3 11 C-2.25 3.375 -2.25 3.375 0 0 Z " fill="#DBEFEE" transform="translate(189,190)"/>
<path d="M0 0 C0.61875 0.33 1.2375 0.66 1.875 1 C-2.12700378 2.60080151 -5.17056236 1.29279692 -9.125 0 C-9.125 3.96 -9.125 7.92 -9.125 12 C-12.425 12 -15.725 12 -19.125 12 C-15.375 4.25 -15.375 4.25 -13.125 2 C-14.115 1.34 -15.105 0.68 -16.125 0 C-10.89155404 -1.74448199 -5.24542565 -1.67853621 0 0 Z " fill="#DBEFEF" transform="translate(218.125,176)"/>
<path d="M0 0 C2.60233603 0.9324641 4.23378469 2.21149805 6.32421875 4.015625 C7.01902344 4.59828125 7.71382812 5.1809375 8.4296875 5.78125 C10.42848166 8.10479103 10.78927366 9.75789139 11.13671875 12.765625 C7.65553043 12.87192083 4.48780567 12.76516427 1.13671875 11.765625 C-0.97110966 9.34893741 -1.92339713 6.80399254 -2.86328125 3.765625 C-3.19328125 2.775625 -3.52328125 1.785625 -3.86328125 0.765625 C-1.86328125 -0.234375 -1.86328125 -0.234375 0 0 Z " fill="#818A8E" transform="translate(221.86328125,178.234375)"/>
<path d="M0 0 C0.66 0.33 1.32 0.66 2 1 C-4.63729312 4.52350129 -10.513226 5.7201206 -18 6 C-17.69078116 7.45903258 -17.37751201 8.91720722 -17.0625 10.375 C-16.80146484 11.59316406 -16.80146484 11.59316406 -16.53515625 12.8359375 C-16.07669307 15.029463 -16.07669307 15.029463 -15 17 C-12.45058627 17.31241371 -9.99638487 17.51303421 -7.4375 17.625 C-6.72658203 17.66367187 -6.01566406 17.70234375 -5.28320312 17.7421875 C-3.52257575 17.83671783 -1.76132272 17.91945817 0 18 C0 18.66 0 19.32 0 20 C-12.66340269 20.77111383 -12.66340269 20.77111383 -17.25 18.125 C-19.6171488 13.89794858 -20.37932972 9.77082383 -21 5 C-19.90300781 4.80664062 -18.80601562 4.61328125 -17.67578125 4.4140625 C-16.22130418 4.15131825 -14.76687983 3.88828199 -13.3125 3.625 C-12.59126953 3.49867188 -11.87003906 3.37234375 -11.12695312 3.2421875 C-7.94053156 2.66019269 -5.12396969 2.04985556 -2.10546875 0.8359375 C-1.06326172 0.42214844 -1.06326172 0.42214844 0 0 Z " fill="#404952" transform="translate(326,291)"/>
<path d="M0 0 C0.99 0 1.98 0 3 0 C1.99806563 3.79303725 1.18975773 6.71536341 -1 10 C-0.01 10 0.98 10 2 10 C2 8.68 2 7.36 2 6 C2.99 6 3.98 6 5 6 C6.125 12.625 6.125 12.625 5 16 C4.01 16 3.02 16 2 16 C2 15.01 2 14.02 2 13 C-0.31 13 -2.62 13 -5 13 C-4.39254603 8.14036821 -2.27241033 4.2594482 0 0 Z " fill="#4A565C" transform="translate(330,161)"/>
<path d="M0 0 C0 2.31 0 4.62 0 7 C-0.66 6.01 -1.32 5.02 -2 4 C-5.24299151 6.38957269 -7.50902342 8.2047869 -9 12 C-6.66785852 13.20628008 -4.50357861 14.1654738 -2 15 C-1.34 14.34 -0.68 13.68 0 13 C0 14.98 0 16.96 0 19 C-3.48330216 18.35494404 -6.09432866 17.01782732 -9 15 C-9 14.34 -9 13.68 -9 13 C-11.475 12.01 -11.475 12.01 -14 11 C-13.67 10.01 -13.34 9.02 -13 8 C-10.9375 7.3125 -10.9375 7.3125 -9 7 C-9 6.34 -9 5.68 -9 5 C-7.5390625 3.7109375 -7.5390625 3.7109375 -5.625 2.375 C-4.68527344 1.70597656 -4.68527344 1.70597656 -3.7265625 1.0234375 C-2 0 -2 0 0 0 Z " fill="#7A8E9B" transform="translate(259,164)"/>
<path d="M0 0 C0.66 0.33 1.32 0.66 2 1 C1.65066406 1.55429688 1.30132812 2.10859375 0.94140625 2.6796875 C0.48636719 3.40414062 0.03132813 4.12859375 -0.4375 4.875 C-0.88996094 5.59429687 -1.34242188 6.31359375 -1.80859375 7.0546875 C-5.03696599 12.32593135 -4.5381016 17.95557106 -4 24 C-2.43559628 27.51662056 -2.43559628 27.51662056 0 30 C1.11375 31.423125 1.11375 31.423125 2.25 32.875 C3.11625 33.926875 3.11625 33.926875 4 35 C-0.97787386 32.78761162 -4.70353007 30.33060121 -6.8125 25.1875 C-8.80148673 19.03868961 -8.40324409 13.86082556 -6 7.93359375 C-4.41147619 4.86203404 -2.34340271 2.53340834 0 0 Z " fill="#99A2A4" transform="translate(317,156)"/>
<path d="M0 0 C0.474375 0.639375 0.94875 1.27875 1.4375 1.9375 C2.95611663 4.41395633 2.95611663 4.41395633 6.6875 4.75 C7.780625 4.8325 8.87375 4.915 10 5 C10 5.33 10 5.66 10 6 C-2.21 6 -14.42 6 -27 6 C-27 5.67 -27 5.34 -27 5 C-21.06 4.67 -15.12 4.34 -9 4 C-8.67 3.01 -8.34 2.02 -8 1 C-5.17116253 -0.41441874 -3.12623255 -0.31900332 0 0 Z " fill="#99A6B1" transform="translate(272,272)"/>
<path d="M0 0 C3.64780666 4.1689219 6 9.44803736 6 15 C3.69 15.33 1.38 15.66 -1 16 C-2.125 13.6875 -2.125 13.6875 -3 11 C-2.34 10.01 -1.68 9.02 -1 8 C-1.66 7.34 -2.32 6.68 -3 6 C-2.67 5.01 -2.34 4.02 -2 3 C-1.34 3 -0.68 3 0 3 C0 2.01 0 1.02 0 0 Z " fill="#E4E5E7" transform="translate(303,222)"/>
<path d="M0 0 C0.33 0 0.66 0 1 0 C1 1.98 1 3.96 1 6 C4.63 6 8.26 6 12 6 C12 6.33 12 6.66 12 7 C8.04 7 4.08 7 0 7 C2.21928194 9.90802461 3.92969143 11.95312762 7 14 C6.67 15.32 6.34 16.64 6 18 C5.57074219 17.278125 5.14148438 16.55625 4.69921875 15.8125 C0.7580188 10.25307793 0.7580188 10.25307793 -5.29101562 7.52636719 C-10.8850037 7.1064951 -16.42337971 7.48942439 -22 8 C-21.34 7.01 -20.68 6.02 -20 5 C-20 5.66 -20 6.32 -20 7 C-19.45859375 6.83628906 -18.9171875 6.67257813 -18.359375 6.50390625 C-15.59777407 5.91409413 -13.07181861 5.90390692 -10.25 5.9375 C-9.26515625 5.94652344 -8.2803125 5.95554688 -7.265625 5.96484375 C-6.14414062 5.98224609 -6.14414062 5.98224609 -5 6 C-5 5.34 -5 4.68 -5 4 C-4.01 4 -3.02 4 -2 4 C-1.34 2.68 -0.68 1.36 0 0 Z " fill="#525B62" transform="translate(322,231)"/>
<path d="M0 0 C28.42155565 -0.56936546 28.42155565 -0.56936546 39.5 1.25 C40.20302246 1.35932861 40.90604492 1.46865723 41.63037109 1.58129883 C46.02698507 2.41393289 48.74016465 3.96584556 52 7 C51.36835938 6.87882813 50.73671875 6.75765625 50.0859375 6.6328125 C42.41969304 5.19677247 34.72644849 4.06027176 27 3 C27 2.67 27 2.34 27 2 C18.09 1.67 9.18 1.34 0 1 C0 0.67 0 0.34 0 0 Z " fill="#888E96" transform="translate(249,202)"/>
<path d="M0 0 C0.33 0.66 0.66 1.32 1 2 C1.66 2 2.32 2 3 2 C3.04898438 2.71027344 3.09796875 3.42054688 3.1484375 4.15234375 C3.22320312 5.07144531 3.29796875 5.99054688 3.375 6.9375 C3.44460937 7.85402344 3.51421875 8.77054688 3.5859375 9.71484375 C3.72257813 10.46894531 3.85921875 11.22304687 4 12 C4.66 12.33 5.32 12.66 6 13 C5.01 13 4.02 13 3 13 C2.67 12.01 2.34 11.02 2 10 C1.67 11.32 1.34 12.64 1 14 C-2.3 14.66 -5.6 15.32 -9 16 C-8.67 13.69 -8.34 11.38 -8 9 C-5.03 9 -2.06 9 1 9 C0.67 6.03 0.34 3.06 0 0 Z " fill="#879497" transform="translate(233,192)"/>
<path d="M0 0 C3.3 0 6.6 0 10 0 C10 3.3 10 6.6 10 10 C7.8125 9.9375 7.8125 9.9375 5 9 C2.61372642 6.43314355 0 3.61081552 0 0 Z " fill="#D0E4E3" transform="translate(199,216)"/>
<path d="M0 0 C0.33 0.66 0.66 1.32 1 2 C3.64 2 6.28 2 9 2 C9 2.33 9 2.66 9 3 C6.36 3.33 3.72 3.66 1 4 C0.01 7.3 -0.98 10.6 -2 14 C0.97 14 3.94 14 7 14 C7 14.66 7 15.32 7 16 C4.03 16 1.06 16 -2 16 C-2 17.98 -2 19.96 -2 22 C-2.66 21.67 -3.32 21.34 -4 21 C-4.08165496 18.79229195 -4.13948488 16.58369575 -4.1875 14.375 C-4.23970703 12.53035156 -4.23970703 12.53035156 -4.29296875 10.6484375 C-3.96573355 6.57326854 -2.97849003 2.97849003 0 0 Z " fill="#758283" transform="translate(188,187)"/>
<path d="M0 0 C2.1875 0 2.1875 0 5 1 C10 7.27027027 10 7.27027027 10 10 C6.7 10 3.4 10 0 10 C0 6.7 0 3.4 0 0 Z " fill="#D6E9E9" transform="translate(211,178)"/>
<path d="M0 0 C2.09065618 3.39731629 2.42098999 6.04269405 2 10 C0.5 11.875 0.5 11.875 -1 13 C-2.98 11.68 -4.96 10.36 -7 9 C-5.64978174 4.58110387 -3.73884332 2.65654657 0 0 Z " fill="#6CB6DA" transform="translate(257,167)"/>
<path d="M0 0 C1.98 0 3.96 0 6 0 C6 2.97 6 5.94 6 9 C3.36 9 0.72 9 -2 9 C-2.20140476 5.37471432 -1.85776765 3.13498292 0 0 Z " fill="#EEEFF1" transform="translate(275,279)"/>
<path d="M0 0 C0.33 0 0.66 0 1 0 C1.44811187 4.57074103 1.56291892 7.93911435 -0.625 12.0625 C-6.03256445 15.16684256 -11.9103801 14.87098258 -18 14 C-20.43359375 12.59375 -20.43359375 12.59375 -22 11 C-22 10.34 -22 9.68 -22 9 C-21.48566406 9.32226562 -20.97132813 9.64453125 -20.44140625 9.9765625 C-17.1969882 11.33662255 -14.44728756 11.33809372 -10.9375 11.375 C-9.70902344 11.40335937 -8.48054687 11.43171875 -7.21484375 11.4609375 C-3.96373287 11.31047098 -3.96373287 11.31047098 -2.109375 9.2109375 C-0.60011621 6.20304851 -0.31979528 3.32587087 0 0 Z " fill="#434951" transform="translate(219,297)"/>
<path d="M0 0 C1.98 0 3.96 0 6 0 C7.76462683 3.08809695 8 4.23312136 8 8 C5.36 8 2.72 8 0 8 C0 5.36 0 2.72 0 0 Z " fill="#F4F5F5" transform="translate(246,280)"/>
<path d="M0 0 C3.96 0 7.92 0 12 0 C12 0.33 12 0.66 12 1 C8.37 1.33 4.74 1.66 1 2 C1.10169161 4.94727535 1.10169161 4.94727535 2 8 C4.22341122 9.15764588 4.22341122 9.15764588 7 10 C8.02738281 10.35320312 9.05476562 10.70640625 10.11328125 11.0703125 C11.16902344 11.41835938 12.22476563 11.76640625 13.3125 12.125 C14.91544922 12.65480469 14.91544922 12.65480469 16.55078125 13.1953125 C17.35902344 13.46085937 18.16726562 13.72640625 19 14 C19 14.33 19 14.66 19 15 C12.06707525 14.66986073 6.55987244 13.36091475 1 9 C-0.31640625 7.14453125 -0.31640625 7.14453125 -1 5 C-0.67 3.35 -0.34 1.7 0 0 Z " fill="#535D65" transform="translate(199,258)"/>
<path d="M0 0 C2.78317989 2.51165015 3.35820164 3.6351295 3.5625 7.3125 C2.799375 6.508125 2.03625 5.70375 1.25 4.875 C-2.44254291 1.35420327 -5.32148709 0.9729842 -10.3671875 1.01953125 C-13.72886764 1.4952407 -15.87537683 3.18781249 -18.4375 5.3125 C-18.7675 5.9725 -19.0975 6.6325 -19.4375 7.3125 C-20.0975 6.9825 -20.7575 6.6525 -21.4375 6.3125 C-15.75987278 -1.14952434 -9.05335087 -4.44437225 0 0 Z " fill="#65666A" transform="translate(297.4375,229.6875)"/>
<path d="M0 0 C10.55808656 -0.3690205 10.55808656 -0.3690205 15 2 C16.125 8.75 16.125 8.75 15 11 C13.68 10.67 12.36 10.34 11 10 C11.66 9.34 12.32 8.68 13 8 C13 6.68 13 5.36 13 4 C8.75481738 2.58493913 3.03909918 1.98045041 -1 4 C-0.67 2.68 -0.34 1.36 0 0 Z " fill="#6B7078" transform="translate(324,226)"/>
<path d="M0 0 C1.65 0.99 3.3 1.98 5 3 C3.84414715 6.91211733 2.64465038 9.8745041 0 13 C-1.125 9.25 -1.125 9.25 0 7 C-1.98 7.99 -1.98 7.99 -4 9 C-2.94124926 5.59687262 -1.99097846 2.98646769 0 0 Z " fill="#A6B7C3" transform="translate(219,214)"/>
<path d="M0 0 C2.64 0 5.28 0 8 0 C9.32 2.97 10.64 5.94 12 9 C6.80474854 7.6393389 3.82444243 5.64232612 0 2 C0 1.34 0 0.68 0 0 Z " fill="#C6D6D7" transform="translate(190,216)"/>
<path d="M0 0 C2.67053114 0.07630089 4.41862287 0.41692789 6.33984375 2.34375 C9.52288103 6.60069956 11.49806106 10.9100958 13 16 C12.5703125 18.23828125 12.5703125 18.23828125 12 20 C11.67 18.35 11.34 16.7 11 15 C10.34 15 9.68 15 9 15 C8.76925781 14.41992188 8.53851563 13.83984375 8.30078125 13.2421875 C6.13116092 8.0453894 3.82014094 4.13848602 0 0 Z " fill="#737B84" transform="translate(302,209)"/>
<path d="M0 0 C0.66 0 1.32 0 2 0 C2.33 0.66 2.66 1.32 3 2 C3.33 1.34 3.66 0.68 4 0 C4.66 0 5.32 0 6 0 C6.33 0.66 6.66 1.32 7 2 C7.33 1.34 7.66 0.68 8 0 C8.66 0 9.32 0 10 0 C9.67 2.64 9.34 5.28 9 8 C8.01 8 7.02 8 6 8 C6 7.01 6 6.02 6 5 C5.34 5 4.68 5 4 5 C4 5.99 4 6.98 4 8 C3.01 7.67 2.02 7.34 1 7 C0.67 4.69 0.34 2.38 0 0 Z " fill="#616366" transform="translate(264,280)"/>
<path d="M0 0 C0.33 0 0.66 0 1 0 C1.30495508 3.88817732 1.29233945 6.4026107 -0.4375 9.9375 C-3.71421478 12.5748558 -5.78456157 12.52398568 -9.87890625 12.46875 C-12.46811747 11.89654862 -13.43910082 11.12343103 -15 9 C-14.6875 6.3125 -14.6875 6.3125 -14 4 C-13.5359375 4.9590625 -13.5359375 4.9590625 -13.0625 5.9375 C-12.1654837 7.93610821 -12.1654837 7.93610821 -11 9 C-7.54187831 9.33338596 -7.54187831 9.33338596 -4 9 C-3.34 8.01 -2.68 7.02 -2 6 C-1.34 6 -0.68 6 0 6 C0 4.02 0 2.04 0 0 Z " fill="#828C8D" transform="translate(356,185)"/>
<path d="M0 0 C1.98 0 3.96 0 6 0 C6.33 0.66 6.66 1.32 7 2 C7.33 1.34 7.66 0.68 8 0 C8.66 0.33 9.32 0.66 10 1 C9.34 3.31 8.68 5.62 8 8 C7.401875 7.835 6.80375 7.67 6.1875 7.5 C3.88655664 6.8885876 3.88655664 6.8885876 1 7 C0.67 4.69 0.34 2.38 0 0 Z " fill="#67696D" transform="translate(253,280)"/>
<path d="M0 0 C1.66611905 -0.042721 3.33382885 -0.04063832 5 0 C6 1 6 1 6.0625 3.5625 C6.041875 4.366875 6.02125 5.17125 6 6 C3 6 0 6 -3 6 C-3 4.35 -3 2.7 -3 1 C-2.01 1.33 -1.02 1.66 0 2 C0 1.34 0 0.68 0 0 Z " fill="#8A9698" transform="translate(326,179)"/>
<path d="M0 0 C3.63 0 7.26 0 11 0 C11 1.32 11 2.64 11 4 C7.04 4 3.08 4 -1 4 C-0.67 2.68 -0.34 1.36 0 0 Z " fill="#B3B8BC" transform="translate(285,172)"/>
<path d="M0 0 C0.58136719 0.48855469 1.16273438 0.97710937 1.76171875 1.48046875 C0.97667969 1.44566406 0.19164062 1.41085938 -0.6171875 1.375 C-7.05551186 1.20910453 -11.55994113 1.40470119 -17.23828125 4.48046875 C-18.04265625 4.87234375 -18.84703125 5.26421875 -19.67578125 5.66796875 C-20.19140625 5.93609375 -20.70703125 6.20421875 -21.23828125 6.48046875 C-19.19371836 2.71847304 -17.99225845 0.7994591 -13.98828125 -0.89453125 C-3.81516463 -2.59005069 -3.81516463 -2.59005069 0 0 Z " fill="#747C7F" transform="translate(337.23828125,153.51953125)"/>
<path d="M0 0 C1.32 0.66 2.64 1.32 4 2 C3.34 2 2.68 2 2 2 C2.57344937 4.86724686 2.8614515 5.8614515 5 8 C5 8.99 5 9.98 5 11 C6.65 11 8.3 11 10 11 C10.33 10.34 10.66 9.68 11 9 C11 9.99 11 10.98 11 12 C9.72125 12.061875 8.4425 12.12375 7.125 12.1875 C6.40570313 12.22230469 5.68640625 12.25710937 4.9453125 12.29296875 C4.30335938 12.19628906 3.66140625 12.09960938 3 12 C2.34 11.01 1.68 10.02 1 9 C0.01 9.495 0.01 9.495 -1 10 C-1.33 8.35 -1.66 6.7 -2 5 C-1.67 5 -1.34 5 -1 5 C-0.67 3.35 -0.34 1.7 0 0 Z " fill="#C7D7D6" transform="translate(186,203)"/>
<path d="M0 0 C1.9375 0.5625 1.9375 0.5625 4 2 C5 5.375 5 5.375 5 9 C3.0625 11.4375 3.0625 11.4375 1 13 C0.67 11.68 0.34 10.36 0 9 C0.66 8.67 1.32 8.34 2 8 C2 7.34 2 6.68 2 6 C1.01 6 0.02 6 -1 6 C-0.67 4.02 -0.34 2.04 0 0 Z " fill="#D0E0E2" transform="translate(350,182)"/>
<path d="M0 0 C-0.309375 0.763125 -0.61875 1.52625 -0.9375 2.3125 C-1.67893593 4.18789677 -2.36228217 6.08684652 -3 8 C-5.64 8 -8.28 8 -11 8 C-4.73913043 0 -4.73913043 0 0 0 Z " fill="#D4E6E9" transform="translate(201,180)"/>
<path d="M0 0 C5.66710699 1.31793186 7.66437233 3.48709197 11 8 C8.36 8 5.72 8 3 8 C0 2.25 0 2.25 0 0 Z " fill="#D5E6E8" transform="translate(219,180)"/>
<path d="M0 0 C1.75364045 2.27973259 3.34832231 4.5573157 4.875 7 C6.99810771 9.99732853 9.10260136 11.78882735 12 14 C12.99 15.485 12.99 15.485 14 17 C12.02 17 10.04 17 8 17 C8 16.01 8 15.02 8 14 C6.4847543 12.34848722 6.4847543 12.34848722 4.5625 10.75 C1.93673344 8.26716831 0.53292372 6.68623271 0.0625 3.0625 C0.041875 2.051875 0.02125 1.04125 0 0 Z " fill="#868D90" transform="translate(186,210)"/>
<path d="M0 0 C0.99 0 1.98 0 3 0 C1.95902388 3.86648272 0.96301592 7.49461443 -1 11 C0.32 11.33 1.64 11.66 3 12 C0.69 12 -1.62 12 -4 12 C-3.45660208 7.43545749 -2.20536179 4.0271824 0 0 Z " fill="#435156" transform="translate(330,161)"/>
<path d="M0 0 C4.05606165 0.46800711 7.46588679 0.87953208 11 3 C10.34 3 9.68 3 9 3 C8.67 3.66 8.34 4.32 8 5 C7.34 4.34 6.68 3.68 6 3 C4.68 2.67 3.36 2.34 2 2 C2 5.3 2 8.6 2 12 C1.34 12 0.68 12 0 12 C0 8.04 0 4.08 0 0 Z " fill="#69777A" transform="translate(209,176)"/>
<path d="M0 0 C0.99 0.33 1.98 0.66 3 1 C2.88630789 3.45933991 2.75957349 5.9167909 2.625 8.375 C2.57859375 9.42300781 2.57859375 9.42300781 2.53125 10.4921875 C2.2265625 15.7734375 2.2265625 15.7734375 0 18 C-3.125 18.125 -3.125 18.125 -6 18 C-6 17.67 -6 17.34 -6 17 C-4.35 16.67 -2.7 16.34 -1 16 C-0.80543295 14.04235617 -0.61955753 12.08384679 -0.4375 10.125 C-0.33308594 9.03445313 -0.22867188 7.94390625 -0.12109375 6.8203125 C0.22639404 4.04847977 0.22639404 4.04847977 -1 2 C-0.67 1.34 -0.34 0.68 0 0 Z " fill="#737E86" transform="translate(225,256)"/>
<path d="M0 0 C0.33 1.32 0.66 2.64 1 4 C-0.28935919 5.14842923 -1.58156579 6.29366227 -2.875 7.4375 C-3.59429687 8.07558594 -4.31359375 8.71367187 -5.0546875 9.37109375 C-7 11 -7 11 -9 12 C-7.57568513 8.93224489 -6.09219926 6.78959901 -4 4 C-7.96 4 -11.92 4 -16 4 C-16 3.67 -16 3.34 -16 3 C-12.04 3 -8.08 3 -4 3 C-3.67 2.34 -3.34 1.68 -3 1 C-2.01 1.66 -1.02 2.32 0 3 C0 2.01 0 1.02 0 0 Z " fill="#454E55" transform="translate(209,234)"/>
<path d="M0 0 C0.66 0 1.32 0 2 0 C2.93619813 3.15506142 3.1057123 5.96586502 3.0625 9.25 C3.05347656 10.14203125 3.04445312 11.0340625 3.03515625 11.953125 C3.02355469 12.62859375 3.01195312 13.3040625 3 14 C2.34 13.34 1.68 12.68 1 12 C-1.89223503 11.53603307 -1.89223503 11.53603307 -5.125 11.375 C-6.76855469 11.26285156 -6.76855469 11.26285156 -8.4453125 11.1484375 C-9.28835937 11.09945312 -10.13140625 11.05046875 -11 11 C-11 10.67 -11 10.34 -11 10 C-7.04 10 -3.08 10 1 10 C0.67 6.7 0.34 3.4 0 0 Z " fill="#667878" transform="translate(222,192)"/>
<path d="M0 0 C0.33 0 0.66 0 1 0 C1.09796875 0.58007812 1.1959375 1.16015625 1.296875 1.7578125 C2.7456429 9.32637583 6.12827182 14.08433007 11 20 C6.76728048 18.11879133 3.10905665 15.84842776 0.6875 11.8125 C-0.27892993 7.85892303 -0.1587693 4.04861703 0 0 Z " fill="#687175" transform="translate(310,171)"/>
<path d="M0 0 C0.66 0.33 1.32 0.66 2 1 C1.67 1.99 1.34 2.98 1 4 C-1 4.66666667 -3 5.33333333 -5 6 C-6.37086915 7.29470975 -7.71340837 8.62150897 -9 10 C-9.66 10 -10.32 10 -11 10 C-9.43989422 5.78771439 -6.5154607 3.65453155 -3 1 C-2.01 0.67 -1.02 0.34 0 0 Z " fill="#848B91" transform="translate(200,177)"/>
<path d="M0 0 C2.97 0 5.94 0 9 0 C9 0.99 9 1.98 9 3 C5.7 3.66 2.4 4.32 -1 5 C-0.67 3.35 -0.34 1.7 0 0 Z " fill="#D6E9EB" transform="translate(225,203)"/>
<path d="M0 0 C0 1.65 0 3.3 0 5 C-2.07553648 5.5534764 -3.84365964 6 -6 6 C-6 4.02 -6 2.04 -6 0 C-3 -1 -3 -1 0 0 Z " fill="#899A9B" transform="translate(339,180)"/>
<path d="M0 0 C3.625 0.375 3.625 0.375 7 1 C7 1.33 7 1.66 7 2 C5.02 2.33 3.04 2.66 1 3 C1.65585189 6.60992379 1.65585189 6.60992379 3 10 C-0.875 9.125 -0.875 9.125 -2 8 C-2.1875 5.0625 -2.1875 5.0625 -2 2 C-1.34 1.34 -0.68 0.68 0 0 Z " fill="#7C8389" transform="translate(189,227)"/>
<path d="M0 0 C2.31 0 4.62 0 7 0 C7 0.33 7 0.66 7 1 C5.02 1.66 3.04 2.32 1 3 C1 5.97 1 8.94 1 12 C3.475 12.99 3.475 12.99 6 14 C6 14.33 6 14.66 6 15 C4.00045254 15.04254356 1.99958364 15.04080783 0 15 C-1 14 -1 14 -1.1328125 11.34765625 C-1.13023437 10.26355469 -1.12765625 9.17945313 -1.125 8.0625 C-1.12757813 6.98097656 -1.13015625 5.89945312 -1.1328125 4.78515625 C-1 2 -1 2 0 0 Z " fill="#424C54" transform="translate(301,259)"/>
<path d="M0 0 C0.33 0.66 0.66 1.32 1 2 C1.99 2.33 2.98 2.66 4 3 C4 4.32 4 5.64 4 7 C2.35 7 0.7 7 -1 7 C-1.625 4.625 -1.625 4.625 -2 2 C-1.34 1.34 -0.68 0.68 0 0 Z " fill="#B1C0CC" transform="translate(312,229)"/>
<path d="M0 0 C0.66 0 1.32 0 2 0 C2 3.76687864 1.76462683 4.91190305 0 8 C0 7.34 0 6.68 0 6 C-1.32 7.32 -2.64 8.64 -4 10 C-4.66 9.67 -5.32 9.34 -6 9 C-5.05016642 7.49460339 -4.08988109 5.99579653 -3.125 4.5 C-2.59132812 3.6646875 -2.05765625 2.829375 -1.5078125 1.96875 C-0.76144531 0.99421875 -0.76144531 0.99421875 0 0 Z " fill="#D0E5E4" transform="translate(205,178)"/>
<path d="M0 0 C1.65 0 3.3 0 5 0 C3.77263971 4.15414253 2.672336 6.43688534 0 10 C0 6.7 0 3.4 0 0 Z " fill="#CCDEE2" transform="translate(211,216)"/>
<path d="M0 0 C1.65 0.33 3.3 0.66 5 1 C5 1.99 5 2.98 5 4 C3.02 4.99 3.02 4.99 1 6 C0.01 5.34 -0.98 4.68 -2 4 C-1.34 2.68 -0.68 1.36 0 0 Z " fill="#B1C3D0" transform="translate(222,211)"/>
<path d="M0 0 C4.95 0.33 9.9 0.66 15 1 C14.67 1.66 14.34 2.32 14 3 C8.17389609 4.51478702 5.15047317 3.62779243 0 1 C0 0.67 0 0.34 0 0 Z " fill="#788082" transform="translate(323,192)"/>
<path d="M0 0 C0.66 0.66 1.32 1.32 2 2 C-1.465 4.97 -1.465 4.97 -5 8 C-5.66 7.67 -6.32 7.34 -7 7 C-6.25 4.5625 -6.25 4.5625 -5 2 C-2.9375 1.25 -2.9375 1.25 -1 1 C-0.67 0.67 -0.34 0.34 0 0 Z " fill="#9AA4AC" transform="translate(203,243)"/>
<path d="M0 0 C0.99 0 1.98 0 3 0 C3.33 0.66 3.66 1.32 4 2 C5.65 1.67 7.3 1.34 9 1 C7.875 3 7.875 3 6 5 C2.8125 5.25 2.8125 5.25 0 5 C0 3.35 0 1.7 0 0 Z " fill="#D0E5E4" transform="translate(211,210)"/>
<path d="M0 0 C0.66 0.33 1.32 0.66 2 1 C1.34 4.3 0.68 7.6 0 11 C-0.99 11.33 -1.98 11.66 -3 12 C-3.66 11.34 -4.32 10.68 -5 10 C-4.67 9.34 -4.34 8.68 -4 8 C-3.01 8 -2.02 8 -1 8 C-1 6.68 -1 5.36 -1 4 C-1.66 3.67 -2.32 3.34 -3 3 C-2.01 2.01 -1.02 1.02 0 0 Z " fill="#C3D2D4" transform="translate(341,182)"/>
<path d="M0 0 C0.33 0.99 0.66 1.98 1 3 C1.99 3 2.98 3 4 3 C4.33 2.01 4.66 1.02 5 0 C4.67 1.98 4.34 3.96 4 6 C0.86650268 7.04449911 0.01031744 6.93423645 -3 6 C-2 3 -2 3 0 0 Z " fill="#CFE2E2" transform="translate(331,174)"/>
<path d="M0 0 C3.125 1 3.125 1 5 2 C0.99799622 3.60080151 -2.04556236 2.29279692 -6 1 C-6 1.66 -6 2.32 -6 3 C-8.31 2.67 -10.62 2.34 -13 2 C-8.74959711 -0.83360193 -4.98846654 -0.41305774 0 0 Z " fill="#BABDC6" transform="translate(215,175)"/>
<path d="M0 0 C1.32 0 2.64 0 4 0 C3.67 1.98 3.34 3.96 3 6 C3.99 6 4.98 6 6 6 C6 6.66 6 7.32 6 8 C4.35 8 2.7 8 1 8 C0.67 5.36 0.34 2.72 0 0 Z " fill="#879C9C" transform="translate(346,182)"/>
<path d="M0 0 C0.33 0 0.66 0 1 0 C1.33 3.3 1.66 6.6 2 10 C0.68 10 -0.64 10 -2 10 C-2.66 8.68 -3.32 7.36 -4 6 C-3.01 5.34 -2.02 4.68 -1 4 C-0.27617533 1.94074861 -0.27617533 1.94074861 0 0 Z " fill="#C2D3D3" transform="translate(350,171)"/>
<path d="M0 0 C1.32 0.33 2.64 0.66 4 1 C5.125 7.75 5.125 7.75 4 10 C2.68 9.67 1.36 9.34 0 9 C0.66 8.34 1.32 7.68 2 7 C2.16681109 3.91652174 2.16681109 3.91652174 2 1 C1.34 0.67 0.68 0.34 0 0 Z " fill="#787D84" transform="translate(335,227)"/>
<path d="M0 0 C2.31 0 4.62 0 7 0 C6.01 1.485 6.01 1.485 5 3 C5 3.66 5 4.32 5 5 C3.35 4.67 1.7 4.34 0 4 C0 2.68 0 1.36 0 0 Z " fill="#DFF2F2" transform="translate(346,190)"/>
<path d="M0 0 C0.99 0 1.98 0 3 0 C2.625 2.9375 2.625 2.9375 2 6 C1.01 6.495 1.01 6.495 0 7 C-1.32 5.68 -2.64 4.36 -4 3 C-3.01 3 -2.02 3 -1 3 C-0.67 2.01 -0.34 1.02 0 0 Z " fill="#6AA4C5" transform="translate(256,173)"/>
<path d="M0 0 C0.66 0 1.32 0 2 0 C2 2.31 2 4.62 2 7 C1.34 6.01 0.68 5.02 0 4 C-1.32 4.99 -2.64 5.98 -4 7 C-4.66 6.67 -5.32 6.34 -6 6 C-4 4 -2 2 0 0 Z " fill="#5A7487" transform="translate(257,164)"/>
<path d="M0 0 C2.3125 0.125 2.3125 0.125 5 1 C6.8125 4.0625 6.8125 4.0625 8 7 C5.97954558 6.39816251 3.97888961 5.72693904 2 5 C1.67 4.34 1.34 3.68 1 3 C1.33 2.34 1.66 1.68 2 1 C1.34 0.67 0.68 0.34 0 0 Z " fill="#D9E6EA" transform="translate(194,218)"/>
<path d="M0 0 C1.65 0 3.3 0 5 0 C4.57847656 0.55429688 4.15695313 1.10859375 3.72265625 1.6796875 C3.17480469 2.40414062 2.62695312 3.12859375 2.0625 3.875 C1.51722656 4.59429687 0.97195312 5.31359375 0.41015625 6.0546875 C-1.03964624 7.94357079 -1.03964624 7.94357079 -2 10 C-2.66 10 -3.32 10 -4 10 C-2.66666667 6.66666667 -1.33333333 3.33333333 0 0 Z " fill="#546165" transform="translate(202,177)"/>
<path d="M0 0 C2 2 2 2 2.125 4.625 C2.08375 5.40875 2.0425 6.1925 2 7 C0.68 7.33 -0.64 7.66 -2 8 C-2.33 6.02 -2.66 4.04 -3 2 C-2.01 2.495 -2.01 2.495 -1 3 C-0.67 2.01 -0.34 1.02 0 0 Z " fill="#A6B4BC" transform="translate(212,228)"/>
<path d="M0 0 C0.99 0.33 1.98 0.66 3 1 C2.67 2.32 2.34 3.64 2 5 C-0.97 4.67 -3.94 4.34 -7 4 C-3 2 -3 2 0 2 C0 1.34 0 0.68 0 0 Z " fill="#748284" transform="translate(230,186)"/>
<path d="M0 0 C0.99 0.33 1.98 0.66 3 1 C2.67 2.98 2.34 4.96 2 7 C-0.64 7 -3.28 7 -6 7 C-5.34 6.34 -4.68 5.68 -4 5 C-1.375 5.375 -1.375 5.375 1 6 C0.67 4.02 0.34 2.04 0 0 Z " fill="#788188" transform="translate(315,230)"/>
<path d="M0 0 C0.33 0 0.66 0 1 0 C1 1.98 1 3.96 1 6 C-2.26954202 5.43628586 -3.82575883 4.50037734 -6 2 C-4.35 2 -2.7 2 -1 2 C-0.67 1.34 -0.34 0.68 0 0 Z " fill="#698595" transform="translate(258,177)"/>
<path d="M0 0 C2.31 0.33 4.62 0.66 7 1 C7 1.99 7 2.98 7 4 C4.69 4 2.38 4 0 4 C0 2.68 0 1.36 0 0 Z " fill="#AFB5BD" transform="translate(260,172)"/>
<path d="M0 0 C-0.66 1.98 -1.32 3.96 -2 6 C-3.32 5.67 -4.64 5.34 -6 5 C-5.34 5 -4.68 5 -4 5 C-4.33 3.68 -4.66 2.36 -5 1 C-3 0 -3 0 0 0 Z " fill="#AABCC7" transform="translate(218,230)"/>
<path d="M0 0 C0.33 0.66 0.66 1.32 1 2 C3.64 2 6.28 2 9 2 C9 2.33 9 2.66 9 3 C8.38511719 3.03738281 7.77023438 3.07476562 7.13671875 3.11328125 C5.92435547 3.21189453 5.92435547 3.21189453 4.6875 3.3125 C3.88699219 3.37050781 3.08648437 3.42851562 2.26171875 3.48828125 C-0.36272334 4.08206694 -1.30820672 4.95780294 -3 7 C-2.25 2.25 -2.25 2.25 0 0 Z " fill="#A1AEAF" transform="translate(188,187)"/>
<path d="M0 0 C1.65 0 3.3 0 5 0 C5 1.32 5 2.64 5 4 C3.35 4 1.7 4 0 4 C0 2.68 0 1.36 0 0 Z " fill="#B0B4B8" transform="translate(277,172)"/>
<path d="M0 0 C0.33 0.66 0.66 1.32 1 2 C0.67 2.99 0.34 3.98 0 5 C1.32 5.33 2.64 5.66 4 6 C1.69 6 -0.62 6 -3 6 C-3 4.68 -3 3.36 -3 2 C-2.01 1.34 -1.02 0.68 0 0 Z " fill="#38444A" transform="translate(329,167)"/>
<path d="M0 0 C2.31 0.66 4.62 1.32 7 2 C6.67 2.66 6.34 3.32 6 4 C4.02 4 2.04 4 0 4 C0 2.68 0 1.36 0 0 Z " fill="#E6EBEF" transform="translate(218,233)"/>
<path d="M0 0 C0.33 0 0.66 0 1 0 C1.49230769 6.4 1.49230769 6.4 -1 9.4375 C-1.99 10.2109375 -1.99 10.2109375 -3 11 C-3 8 -3 8 -2 6 C-1.34 6 -0.68 6 0 6 C0 4.02 0 2.04 0 0 Z " fill="#999EA0" transform="translate(356,185)"/>
<path d="M0 0 C1.32 0 2.64 0 4 0 C3.67 3.63 3.34 7.26 3 11 C2.67 11 2.34 11 2 11 C1.77213542 9.01432292 1.54427083 7.02864583 1.31640625 5.04296875 C1.02829265 2.80603607 1.02829265 2.80603607 0 0 Z " fill="#C7DAD9" transform="translate(193,190)"/>
<path d="M0 0 C1.32 0 2.64 0 4 0 C4 1.65 4 3.3 4 5 C2.68 5 1.36 5 0 5 C0 3.35 0 1.7 0 0 Z " fill="#5F7070" transform="translate(323,180)"/>
<path d="M0 0 C0.33 0 0.66 0 1 0 C1 2.64 1 5.28 1 8 C0.01 7.67 -0.98 7.34 -2 7 C-1.34 4.69 -0.68 2.38 0 0 Z " fill="#F8FAFC" transform="translate(280,280)"/>
<path d="M0 0 C0.99 0 1.98 0 3 0 C2.67 1.32 2.34 2.64 2 4 C0.68 4 -0.64 4 -2 4 C-1.34 2.68 -0.68 1.36 0 0 Z " fill="#E2E7E9" transform="translate(323,262)"/>
<path d="M0 0 C-2.22189824 2.22189824 -4.08482708 2.92598892 -7 4 C-7.33 2.68 -7.66 1.36 -8 0 C-4.71023192 -1.09658936 -3.28696233 -0.79953138 0 0 Z " fill="#A1ACB5" transform="translate(304,208)"/>
<path d="M0 0 C1.98 0.495 1.98 0.495 4 1 C4 1.99 4 2.98 4 4 C2.35 3.67 0.7 3.34 -1 3 C-0.67 2.01 -0.34 1.02 0 0 Z " fill="#ACAEB2" transform="translate(299,172)"/>
<path d="M0 0 C0.66 1.32 1.32 2.64 2 4 C1.34 4 0.68 4 0 4 C0 5.32 0 6.64 0 8 C-0.99 8 -1.98 8 -3 8 C-1.125 2.25 -1.125 2.25 0 0 Z " fill="#C4D0D7" transform="translate(332,163)"/>
</svg>
